<?xml version="1.0" encoding="UTF-8"?> <svg xmlns="http://www.w3.org/2000/svg" width="1440" height="238" fill="none"><path d="M1444.82 202.629H-.184v35H1444.82v-35Z" fill="#00B3E4"></path><path opacity=".13" d="M360.816 183.629h-360v19h360v-19Z" fill="#00B3E4"></path><path opacity=".05" d="M1082.19 132.04V30h-26.17v102.04h-10V63.114h-33.87v68.926h-26.618v-94.9h-32.64v51.294h-13.987V21.292h-37.301v74.6h-10.257V51.135h-37.308v40.568h-13.057v-28.45h-21.445v13.28h-24.252V10.833h-37.977V93.31h-53.41V71.864h-31.71V86.78h-14.925V33.625h-72.894V100.7h-39.631v102.082h554.052V132.04h-16.6Z" fill="#1D1D1B"></path><path opacity=".05" d="M1635.26 132.04V0h-26.16v132.04h-10.01V63.113h-33.86v68.927h-26.62v-94.9h-32.64v51.294h-13.99V21.292h-37.3v74.6h-10.26V51.135h-37.3v40.568h-13.06v-28.45h-21.45v13.28h-24.25V10.833h-37.97V93.31h-53.41V71.864h-31.71V86.78h-14.93V33.625h-72.89v67.073h-39.63v102.083h550.05V132.04h-12.61ZM222.168 76.531V10.834h-37.977V93.31h-30.342V71.864h-31.71V86.78H91.074V33.625H18.172V100.7H-13v102.082h558.509V132.04h-21.053v-95.9h-26.174v95.9h-10.004V63.114h-33.864v68.926h-26.62v-94.9h-32.641v51.294h-13.986V21.292h-37.301v74.6h-10.257V51.135H296.3v40.568h-13.056V76.324h-21.445l-39.631.207Z" fill="#1D1D1B"></path><g opacity=".03" fill="#fff"><path d="M650.467 39.684h-39.338v7.036h39.338v-7.036ZM650.467 54.079h-39.338v7.035h39.338V54.08ZM650.467 68.465h-39.338v7.036h39.338v-7.036ZM650.467 82.86h-39.338v7.035h39.338v-7.036ZM650.467 97.246h-39.338v7.036h39.338v-7.036ZM925.733 31.526h-18.838v6.282h18.838v-6.282ZM925.733 40.322h-18.838v6.283h18.838v-6.282ZM925.733 49.111h-18.838v6.283h18.838V49.11ZM925.733 57.9h-18.838v6.282h18.838V57.9ZM925.733 66.697h-18.838v6.282h18.838v-6.282ZM925.733 75.486h-18.838v6.282h18.838v-6.282ZM925.733 84.274h-18.838v6.282h18.838v-6.282ZM867.207 55.393h-8.789v8.79h8.789v-8.79ZM867.207 67.45h-8.789v8.789h8.789V67.45ZM867.207 79.507h-8.789v8.789h8.789v-8.789ZM867.207 91.564h-8.789v8.789h8.789v-8.79ZM867.207 103.62h-8.789v8.789h8.789v-8.789ZM774.103 20.438h-7.474v7.474h7.474v-7.474ZM774.103 34.37h-7.474v7.475h7.474V34.37ZM774.103 48.304h-7.474v7.474h7.474v-7.474ZM774.103 62.245h-7.474v7.474h7.474v-7.474ZM774.103 76.177h-7.474v7.474h7.474v-7.474ZM774.103 90.11h-7.474v7.474h7.474V90.11ZM774.103 104.043h-7.474v7.474h7.474v-7.474ZM1040.29 69.834h-8.86v8.865h8.86v-8.865ZM1040.29 99.253h-8.86v8.866h8.86v-8.866ZM1420.28 55.393h-8.79v8.79h8.79v-8.79ZM1420.28 67.45h-8.79v8.789h8.79V67.45ZM1420.28 79.507h-8.79v8.789h8.79v-8.789ZM1420.28 91.564h-8.79v8.789h8.79v-8.79ZM1420.28 103.62h-8.79v8.789h8.79v-8.789ZM1327.18 20.438h-7.47v7.474h7.47v-7.474ZM1327.18 34.37h-7.47v7.475h7.47V34.37ZM1327.18 48.304h-7.47v7.474h7.47v-7.474ZM1327.18 62.245h-7.47v7.474h7.47v-7.474ZM1327.18 76.177h-7.47v7.474h7.47v-7.474ZM1327.18 90.11h-7.47v7.474h7.47V90.11ZM1327.18 104.043h-7.47v7.474h7.47v-7.474ZM1203.55 39.684h-39.34v7.036h39.34v-7.036ZM1203.55 54.079h-39.34v7.035h39.34V54.08ZM1203.55 68.465h-39.34v7.036h39.34v-7.036ZM1203.55 82.86h-39.34v7.035h39.34v-7.036ZM1203.55 97.246h-39.34v7.036h39.34v-7.036ZM367.995 31.526h-18.839v6.282h18.839v-6.282ZM367.995 40.322h-18.839v6.283h18.839v-6.282ZM367.995 49.111h-18.839v6.283h18.839V49.11ZM367.995 57.9h-18.839v6.282h18.839V57.9ZM367.995 66.697h-18.839v6.282h18.839v-6.282ZM367.995 75.486h-18.839v6.282h18.839v-6.282ZM367.995 84.274h-18.839v6.282h18.839v-6.282ZM309.465 55.393h-8.789v8.79h8.789v-8.79ZM309.465 67.45h-8.789v8.789h8.789V67.45ZM309.465 79.507h-8.789v8.789h8.789v-8.789ZM309.465 91.564h-8.789v8.789h8.789v-8.79ZM309.465 103.62h-8.789v8.789h8.789v-8.789ZM207.134 20.438h-7.474v7.474h7.474v-7.474ZM207.134 34.37h-7.474v7.475h7.474V34.37ZM207.134 48.304h-7.474v7.474h7.474v-7.474ZM207.134 62.245h-7.474v7.474h7.474v-7.474ZM207.134 76.177h-7.474v7.474h7.474v-7.474ZM207.134 90.11h-7.474v7.474h7.474V90.11ZM207.134 104.043h-7.474v7.474h7.474v-7.474ZM84.269 39.684H26.223v7.036h58.046v-7.036ZM84.269 54.079H26.223v7.035h58.046V54.08ZM84.269 68.465H26.223v7.036h58.046v-7.036ZM84.269 82.86H26.223v7.035h58.046v-7.036ZM84.269 97.246H26.223v7.036h58.046v-7.036Z"></path></g><path d="M1020.07 203.089h-3.95l.62-13.676h2.7l.63 13.676Z" fill="#1D1D1B"></path><path d="M1027.27 187.633c5.06-5.068 5.06-13.284 0-18.352-5.07-5.068-13.29-5.068-18.36 0-5.06 5.068-5.06 13.284 0 18.352 5.07 5.068 13.29 5.068 18.36 0Z" fill="#00D425"></path><path d="M1018.09 165.483v25.951a13.006 13.006 0 0 0 9.3-3.733 12.981 12.981 0 0 0 2.86-4.233c.67-1.587 1.01-3.29 1.01-5.01 0-1.72-.34-3.423-1.01-5.01a13.002 13.002 0 0 0-2.86-4.233 13.021 13.021 0 0 0-4.28-2.8c-1.59-.64-3.3-.957-5.02-.932ZM1272.23 203.089h-4.3l.68-14.868h2.94l.68 14.868Z" fill="#00D425"></path><path d="M1284.48 179.24a5.138 5.138 0 0 0-3.18-4.762 5.185 5.185 0 0 0-1.97-.392h-.99a3.824 3.824 0 0 0 1.91-1.713c.42-.775.56-1.673.39-2.539a3.807 3.807 0 0 0-3.74-3.069h-13.63a3.787 3.787 0 0 0-2.42.864 3.813 3.813 0 0 0-1.32 2.205c-.17.866-.03 1.764.39 2.539.42.776 1.1 1.381 1.91 1.713h-.99a5.157 5.157 0 0 0-5.03 5.152 5.159 5.159 0 0 0 5.03 5.153h1.15c-.85.3-1.56.889-2.01 1.663a3.834 3.834 0 0 0-.47 2.566 3.83 3.83 0 0 0 1.31 2.261c.68.576 1.55.891 2.45.889h13.63c.9.002 1.77-.313 2.45-.889a3.767 3.767 0 0 0 1.3-2.261 3.772 3.772 0 0 0-.46-2.566 3.774 3.774 0 0 0-2.01-1.663h1.15c1.36 0 2.67-.542 3.64-1.508a5.137 5.137 0 0 0 1.51-3.643Z" fill="#00D425"></path><path d="M1284.48 179.24a5.138 5.138 0 0 0-3.18-4.762 5.148 5.148 0 0 0-1.97-.392h-.99a3.784 3.784 0 0 0 1.91-1.713c.42-.775.56-1.673.39-2.539a3.813 3.813 0 0 0-1.32-2.205 3.787 3.787 0 0 0-2.42-.864h-6.81v25.005h6.81c.9.002 1.77-.313 2.46-.889a3.868 3.868 0 0 0 1.3-2.261 3.834 3.834 0 0 0-.47-2.566 3.774 3.774 0 0 0-2.01-1.663h1.15c1.36 0 2.68-.542 3.64-1.508a5.137 5.137 0 0 0 1.51-3.643Z" fill="#00D425"></path><path d="M991.694 203.089h-4.296l.677-14.868h2.943l.676 14.868Z" fill="#1D1D1B"></path><path d="M1003.96 179.24c0-.677-.14-1.348-.39-1.973a5.156 5.156 0 0 0-4.767-3.181h-.99a3.802 3.802 0 0 0 1.914-1.712 3.838 3.838 0 0 0 .393-2.538 3.831 3.831 0 0 0-1.32-2.206 3.8 3.8 0 0 0-2.418-.865h-13.639a3.8 3.8 0 0 0-1.431 7.321h-.993a5.153 5.153 0 0 0 0 10.305h1.148a3.802 3.802 0 0 0-1.174 6.488 3.794 3.794 0 0 0 2.45.891h13.639a3.794 3.794 0 0 0 3.748-3.151 3.813 3.813 0 0 0-.463-2.566 3.802 3.802 0 0 0-2.008-1.662h1.144a5.174 5.174 0 0 0 1.977-.391 5.21 5.21 0 0 0 1.67-1.117c.48-.478.86-1.046 1.12-1.671.25-.625.39-1.296.39-1.972Z" fill="#00D425"></path><path d="M1003.96 179.24a5.135 5.135 0 0 0-1.51-3.646 5.226 5.226 0 0 0-1.67-1.117 5.164 5.164 0 0 0-1.975-.391h-.991a3.804 3.804 0 0 0 2.306-4.25 3.82 3.82 0 0 0-1.319-2.206 3.8 3.8 0 0 0-2.418-.865h-6.821v25.005h6.821a3.796 3.796 0 0 0 3.747-3.151 3.798 3.798 0 0 0-2.47-4.228h1.145a5.168 5.168 0 0 0 1.975-.391 5.21 5.21 0 0 0 1.67-1.117 5.133 5.133 0 0 0 1.51-3.643Z" fill="#00D425"></path><path d="M643.332 203.089h-3.566l.561-12.346h2.444l.561 12.346ZM683.89 203.089h-3.874l.608-13.42h2.655l.611 13.42ZM663.777 203.089h-4.64l.732-16.066h3.179l.729 16.066ZM853.047 202.808h-4.641l.73-16.066h3.181l.73 16.066Z" fill="#1D1D1B"></path><path d="M850.724 189.116c8.419 0 15.244-6.825 15.244-15.244s-6.825-15.243-15.244-15.243-15.244 6.824-15.244 15.243 6.825 15.244 15.244 15.244Z" fill="#00D425"></path><path d="M850.727 158.629v30.487a15.24 15.24 0 0 0 15.243-15.244 15.243 15.243 0 0 0-15.243-15.243Z" fill="#00D425"></path><path d="M770.957 203.089h-4.293l.676-14.868h2.941l.676 14.868Z" fill="#1D1D1B"></path><path d="M780.928 177.722a4.334 4.334 0 0 0-1.271-3.067 4.334 4.334 0 0 0-3.067-1.271h-.841a3.2 3.2 0 0 0 .845-5.453 3.2 3.2 0 0 0-2.052-.719h-11.475a3.2 3.2 0 0 0-3.169 2.584 3.196 3.196 0 0 0 1.962 3.588h-.842a4.326 4.326 0 0 0-4.107 2.651 4.341 4.341 0 0 0 .969 4.791 4.326 4.326 0 0 0 3.138 1.231h.963a3.195 3.195 0 0 0-2.071 3.557 3.195 3.195 0 0 0 3.148 2.652h11.476a3.2 3.2 0 0 0 1.077-6.209h.962a4.34 4.34 0 0 0 4.355-4.335Z" fill="#00D425"></path><path d="M780.932 177.722a4.337 4.337 0 0 0-4.337-4.338h-.842a3.2 3.2 0 0 0 .845-5.453 3.2 3.2 0 0 0-2.052-.719h-5.737v21.043h5.737a3.202 3.202 0 0 0 3.149-2.652 3.202 3.202 0 0 0-2.071-3.557h.962a4.338 4.338 0 0 0 4.346-4.324ZM786.08 195.432a6.67 6.67 0 0 0-6.671-6.535 6.67 6.67 0 0 0-6.67 6.535 7.414 7.414 0 0 0-6.673 7.376h26.689a7.411 7.411 0 0 0-6.675-7.376Z" fill="#00D425"></path><path d="M786.079 195.432a6.672 6.672 0 0 0-6.669-6.605v13.981h13.344a7.415 7.415 0 0 0-6.675-7.376ZM604.194 193.316a8.834 8.834 0 0 0-2.589-6.249 8.834 8.834 0 0 0-12.499 0 8.838 8.838 0 0 0-2.588 6.249 9.818 9.818 0 0 0-8.838 9.773h35.352a9.819 9.819 0 0 0-8.838-9.773Z" fill="#00D425"></path><path d="M604.195 193.316a8.84 8.84 0 0 0-8.836-8.745v18.518h17.677a9.82 9.82 0 0 0-8.841-9.773ZM805.026 196.372a5.945 5.945 0 0 0-10.154-4.206 5.948 5.948 0 0 0-1.742 4.206 6.612 6.612 0 0 0-5.942 6.587h23.798a6.606 6.606 0 0 0-5.96-6.587Z" fill="#00D425"></path><path d="M805.03 196.372a5.948 5.948 0 0 0-5.948-5.893v12.48h11.899a6.607 6.607 0 0 0-5.951-6.587ZM1308.65 193.316c0-2.344-.94-4.592-2.59-6.249a8.849 8.849 0 0 0-6.25-2.589c-2.35 0-4.59.931-6.25 2.589a8.827 8.827 0 0 0-2.59 6.249 9.816 9.816 0 0 0-6.3 3.183 9.795 9.795 0 0 0-2.54 6.59h35.35c0-2.434-.9-4.782-2.53-6.588a9.851 9.851 0 0 0-6.3-3.185Z" fill="#00D425"></path><path d="M1308.65 193.316a8.879 8.879 0 0 0-2.62-6.189 8.845 8.845 0 0 0-6.22-2.556v18.518h17.68c0-2.436-.91-4.784-2.54-6.59a9.811 9.811 0 0 0-6.3-3.183ZM1241.58 193.807c0-2.225-.89-4.36-2.46-5.934a8.408 8.408 0 0 0-5.94-2.458c-2.22 0-4.36.884-5.93 2.458a8.411 8.411 0 0 0-2.46 5.934 9.314 9.314 0 0 0-5.98 3.024 9.295 9.295 0 0 0-2.42 6.258h33.58c0-2.313-.85-4.544-2.41-6.259a9.313 9.313 0 0 0-5.98-3.023ZM1192.58 193.316a8.86 8.86 0 0 0-2.58-6.249 8.849 8.849 0 0 0-6.25-2.589c-2.35 0-4.6.931-6.25 2.589a8.827 8.827 0 0 0-2.59 6.249 9.822 9.822 0 0 0-6.3 3.184 9.793 9.793 0 0 0-2.54 6.589h35.35c0-2.435-.9-4.783-2.53-6.589a9.846 9.846 0 0 0-6.31-3.184Z" fill="#00D425"></path><path d="M1215.66 194.775a7.547 7.547 0 0 0-2.25-5.221 7.539 7.539 0 0 0-5.27-2.15c-1.97 0-3.86.772-5.26 2.15a7.504 7.504 0 0 0-2.25 5.221 8.357 8.357 0 0 0-7.52 8.314h30.07a8.357 8.357 0 0 0-7.52-8.314Z" fill="#00D425"></path><path d="M866.255 202.715h-3.564l.562-12.345h2.441l.561 12.345Z" fill="#1D1D1B"></path><path d="M864.474 192.194a9.12 9.12 0 1 0 0-18.239 9.12 9.12 0 0 0 0 18.239Z" fill="#00D425"></path><path d="M864.473 173.957v18.237a9.122 9.122 0 0 0 9.118-9.119 9.12 9.12 0 0 0-9.118-9.118Z" fill="#00D425"></path><path d="M1075.43 109.684h-.87l-1.11 93.367h3.08l-1.1-93.367ZM1074.19 109.454l-22.02 1.593s-.1.881.74.874c1.55 0 19.09.096 19.09.096l1.1-1.637 1.2-.207-.11-.719ZM1075.78 111.224l12.59 18.167c.1-.039.2-.102.27-.182.08-.08.14-.176.17-.281a.72.72 0 0 0 .03-.326.681.681 0 0 0-.11-.307c-.8-1.333-9.63-16.5-9.63-16.5l-1.97-.119-.79-.918-.56.466ZM1076.44 109.077l9.68-19.848a.83.83 0 0 0-.29-.15.75.75 0 0 0-.85.372c-.74 1.348-9.67 16.463-9.67 16.463l.87 1.778-.42 1.14.68.245Z" fill="#fff"></path><path d="M1073.67 109.884c0-.335.09-.664.28-.945.18-.28.44-.5.75-.631s.65-.167.98-.105c.33.063.63.222.87.457.24.235.41.536.47.864.07.328.04.67-.08.981a1.71 1.71 0 0 1-.62.766c-.28.189-.61.291-.94.294-.22.002-.44-.04-.65-.123-.21-.084-.4-.207-.55-.363a1.747 1.747 0 0 1-.38-.547 1.791 1.791 0 0 1-.13-.648Z" fill="#1D1D1B"></path><path d="M1114.83 126.421h.85l1.08 76.629H1113.74l1.09-76.629ZM1116.04 126.221l21.62 1.563a.741.741 0 0 1-.17.597.735.735 0 0 1-.26.19.703.703 0 0 1-.31.065c-1.52 0-18.73.096-18.73.096l-1.08-1.607-1.17-.2.1-.704ZM1114.48 127.969l-12.32 17.775a.71.71 0 0 1-.26-.18.764.764 0 0 1-.17-.275.846.846 0 0 1-.03-.317c.01-.107.05-.21.1-.302.79-1.311 9.43-16.19 9.43-16.19l1.94-.111.74-.903.57.503ZM1113.84 125.829l-9.5-19.47a.715.715 0 0 1 .6-.151.67.67 0 0 1 .29.127c.09.063.16.145.22.239.74 1.325 9.48 16.152 9.48 16.152l-.84 1.74.41 1.119-.66.244Z" fill="#fff"></path><path d="M1116.56 126.614a1.648 1.648 0 0 0-1.02-1.549c-.3-.128-.63-.164-.96-.103-.32.061-.62.218-.85.448-.24.231-.4.527-.47.85-.07.322-.04.658.09.963.12.306.33.568.6.753a1.695 1.695 0 0 0 1.57.168c.2-.082.38-.203.54-.356.16-.153.28-.336.37-.538.08-.201.13-.417.13-.636Z" fill="#1D1D1B"></path><path d="M1095.37 79.69h1.13l1.46 123.36h-4.05l1.46-123.36ZM1094.48 78.772l-29.01-1.904a.952.952 0 0 1 .23-.813c.09-.11.21-.197.35-.257.13-.059.27-.088.42-.085 2.04 0 25.14-.311 25.14-.311l1.48 2.148 1.57.259-.18.963ZM1096.55 76.454l16.36-24.025c.14.052.26.134.36.239.1.105.18.23.23.368.04.138.06.285.04.429a.864.864 0 0 1-.14.408c-1.03 1.763-12.49 21.81-12.49 21.81l-2.6.17-1.02 1.223-.74-.622Z" fill="#fff"></path><path d="m1097.44 79.275 12.93 26.032a.969.969 0 0 1-.38.188.961.961 0 0 1-.42.012.946.946 0 0 1-.39-.167.956.956 0 0 1-.29-.314c-1.03-1.77-12.89-21.581-12.89-21.581l1.12-2.348-.56-1.481.88-.34Z" fill="#fff"></path><path d="M1093.78 78.246c0 .44.13.869.38 1.234.24.365.59.65.99.818.41.168.86.212 1.29.127a2.2 2.2 0 0 0 1.13-.608c.31-.311.53-.707.61-1.138.09-.43.04-.878-.12-1.284a2.273 2.273 0 0 0-.82-.997 2.224 2.224 0 0 0-2.81.276 2.25 2.25 0 0 0-.65 1.572Z" fill="#1D1D1B"></path><path d="M195.091 199.745H71.267c-8.533 0-15.45.847-15.45 1.891 0 1.045 6.917 1.895 15.45 1.895h123.824c8.533 0 15.451-.847 15.451-1.892s-6.918-1.894-15.451-1.894Z" fill="#00B3E4"></path><path d="M102.587 167.646H60.938l-1.473 9.611h45.522l-2.4-9.611ZM61.767 158.445l-.83 9.201h36.987v-9.201H61.767Z" fill="#E2E2E2"></path><path d="m61.094 165.807-.157 1.839h36.987v-1.839h-36.83Z" fill="#BCBCBC"></path><path d="M68.707 160.413H66.89v3.425h1.816v-3.425ZM65.3 160.413h-1.816v3.425H65.3v-3.425ZM72.293 160.413h-1.816v3.425h1.816v-3.425ZM75.949 160.413h-1.816v3.425h1.816v-3.425ZM84.528 163.838h1.816v-3.425h-1.816v3.425ZM87.762 163.838h1.816v-3.425h-1.816v3.425ZM91.192 163.838h1.816v-3.425h-1.816v3.425ZM94.43 163.838h1.816v-3.425H94.43v3.425ZM81.29 163.838h1.816v-3.425H81.29v3.425ZM79.527 160.413H77.71v3.425h1.816v-3.425ZM74.789 170.279h-1.816v3.426h1.816v-3.426ZM71.379 170.279h-1.817v3.426h1.817v-3.426ZM67.754 170.398h-1.817v3.425h1.817v-3.425ZM78.37 170.279h-1.815v3.426h1.816v-3.426ZM82.03 170.279h-1.815v3.426h1.816v-3.426ZM90.606 173.704h1.816v-3.425h-1.816v3.425ZM93.84 173.704h1.816v-3.425H93.84v3.425ZM97.278 173.704h1.816v-3.425h-1.816v3.425ZM87.371 173.704h1.817v-3.425H87.37v3.425ZM85.605 170.279h-1.816v3.426h1.816v-3.426Z" fill="#BBB"></path><path d="m55.816 177.079.84 5.05L62.03 197.5v4.993h141.418v-3.198l9.025-15.82v-6.396H55.816Z" fill="#DDD"></path><path d="M62.031 197.5v4.993H203.45v-3.198l1.024-1.795H62.031Z" fill="#BBB"></path><path d="M175.794 165.784h-17.689v11.295h17.689v-11.295Z" fill="#E62D20"></path><path opacity=".07" d="M160.602 175.982c-.148 0-.274-.158-.274-.352v-8.119c0-.195.123-.353.274-.353.152 0 .275.158.275.353v8.119c0 .194-.123.352-.275.352ZM163.324 175.982c-.148 0-.273-.158-.273-.352v-8.119c0-.195.122-.353.273-.353.151 0 .275.158.275.353v8.119c0 .194-.123.352-.275.352ZM166.196 175.844c-.149 0-.274-.158-.274-.353v-8.118c0-.196.123-.353.274-.353.152 0 .274.157.274.353v8.118c0 .195-.121.353-.274.353ZM168.782 175.844c-.149 0-.274-.158-.274-.353v-8.118c0-.196.122-.353.274-.353.152 0 .274.157.274.353v8.118c0 .195-.123.353-.274.353ZM171.509 175.844c-.149 0-.275-.158-.275-.353v-8.118c0-.196.123-.353.275-.353.151 0 .274.157.274.353v8.118c0 .195-.123.353-.274.353Z" fill="#fff"></path><path d="M122.845 165.784h-17.689v11.295h17.689v-11.295Z" fill="#E62D20"></path><path d="M122.841 165.784h-1.974v11.295h1.974v-11.295Z" fill="#E54047"></path><path opacity=".07" d="M107.649 175.982c-.149 0-.274-.158-.274-.352v-8.119c0-.195.123-.353.274-.353.15 0 .274.158.274.353v8.119c.002.194-.123.352-.274.352ZM110.372 175.982c-.149 0-.274-.158-.274-.352v-8.119c0-.195.122-.353.274-.353.152 0 .274.158.274.353v8.119c0 .194-.121.352-.274.352ZM113.243 175.844c-.149 0-.274-.158-.274-.353v-8.118c0-.196.123-.353.274-.353.151 0 .274.157.274.353v8.118c0 .195-.122.353-.274.353ZM115.829 175.844c-.149 0-.274-.158-.274-.353v-8.118c0-.196.122-.353.274-.353.152 0 .274.157.274.353v8.118c0 .195-.122.353-.274.353ZM118.556 175.844c-.149 0-.275-.158-.275-.353v-8.118c0-.196.123-.353.275-.353.151 0 .273.157.273.353v8.118c.002.195-.121.353-.273.353Z" fill="#fff"></path><path d="M184.638 154.626h-17.689v11.295h17.689v-11.295Z" fill="#164194"></path><path opacity=".2" d="M184.638 154.626h-1.974v11.295h1.974v-11.295Z" fill="#1D1D1B"></path><path opacity=".07" d="M169.446 164.824c-.148 0-.274-.158-.274-.353v-8.118c0-.195.123-.353.274-.353.152 0 .274.158.274.353v8.118c0 .195-.122.353-.274.353ZM172.173 164.824c-.149 0-.275-.158-.275-.353v-8.118c0-.195.123-.353.275-.353.151 0 .273.158.273.353v8.118c.002.195-.122.353-.273.353ZM175.04 164.686c-.149 0-.274-.159-.274-.353v-8.119c0-.195.122-.352.274-.352.152 0 .273.157.273.352v8.119c0 .194-.118.353-.273.353ZM177.626 164.686c-.149 0-.274-.159-.274-.353v-8.119c0-.195.122-.352.274-.352.151 0 .273.157.273.352v8.119c0 .194-.122.353-.273.353ZM180.352 164.686c-.148 0-.274-.159-.274-.353v-8.119c0-.195.123-.352.274-.352.152 0 .275.157.275.352v8.119c0 .194-.123.353-.275.353Z" fill="#fff"></path><path d="M149.328 166.583h18v-12h-18v12Z" fill="#E62D20"></path><path d="M149.085 165.784h1.974v-11.295h-1.974v11.295Z" fill="#E54047"></path><path opacity=".07" d="M164.278 164.687c.149 0 .274-.157.274-.353v-8.118c0-.195-.122-.353-.274-.353-.151 0-.274.158-.274.353v8.118c0 .196.123.353.274.353ZM161.555 164.687c.148 0 .274-.157.274-.353v-8.118c0-.195-.123-.353-.274-.353-.152 0-.274.158-.274.353v8.118c0 .196.123.353.274.353ZM158.681 164.549c.148 0 .274-.158.274-.353v-8.119c0-.195-.123-.352-.274-.352-.152 0-.275.157-.275.352v8.119c0 .195.123.353.275.353ZM156.094 164.549c.149 0 .274-.158.274-.353v-8.119c0-.195-.122-.352-.274-.352-.152 0-.274.157-.274.352v8.119c0 .195.121.353.274.353ZM153.376 164.549c.149 0 .273-.158.273-.353v-8.119c0-.195-.122-.352-.273-.352-.151 0-.274.157-.274.352v8.119c0 .195.122.353.274.353Z" fill="#fff"></path><path d="M122.788 177.079h17.689v-11.295h-17.689v11.295Z" fill="#E5A92E"></path><path d="M122.792 177.079h1.974v-11.295h-1.974v11.295Z" fill="#E5882E"></path><path opacity=".07" d="M137.985 175.982c.149 0 .274-.158.274-.352v-8.119c0-.195-.123-.353-.274-.353-.151 0-.274.158-.274.353v8.119c0 .194.123.352.274.352ZM135.259 175.982c.148 0 .274-.158.274-.352v-8.119c0-.195-.123-.353-.274-.353-.152 0-.275.158-.275.353v8.119c-.001.194.123.352.275.352ZM132.388 175.844c.148 0 .273-.158.273-.353v-8.118c0-.196-.123-.353-.273-.353-.151 0-.275.157-.275.353v8.118c0 .195.123.353.275.353ZM129.802 175.844c.148 0 .274-.158.274-.353v-8.118c0-.196-.123-.353-.274-.353-.152 0-.275.157-.275.353v8.118c0 .195.123.353.275.353ZM127.074 175.844c.149 0 .275-.158.275-.353v-8.118c0-.196-.123-.353-.275-.353-.151 0-.273.157-.273.353v8.118c.003.195.122.353.273.353Z" fill="#fff"></path><path d="M113.718 165.784h17.688v-11.295h-17.688v11.295Z" fill="#E5A92E"></path><path opacity=".2" d="M113.714 165.784h1.974v-11.295h-1.974v11.295Z" fill="#1D1D1B"></path><path opacity=".07" d="M128.906 164.687c.149 0 .275-.157.275-.353v-8.118c0-.195-.123-.353-.275-.353-.151 0-.273.158-.273.353v8.118c0 .196.122.353.273.353ZM126.184 164.687c.149 0 .275-.157.275-.353v-8.118c0-.195-.124-.353-.275-.353-.15 0-.274.158-.274.353v8.118c.003.196.123.353.274.353ZM123.313 164.549c.149 0 .274-.158.274-.353v-8.119c0-.195-.123-.352-.274-.352-.151 0-.274.157-.274.352v8.119c.002.195.126.353.274.353ZM120.727 164.549c.149 0 .275-.158.275-.353v-8.119c0-.195-.124-.352-.275-.352-.15 0-.274.157-.274.352v8.119c0 .195.123.353.274.353ZM118.001 164.549c.149 0 .274-.158.274-.353v-8.119c0-.195-.123-.352-.274-.352-.152 0-.274.157-.274.352v8.119c0 .195.123.353.274.353Z" fill="#fff"></path><path d="M211.165 165.784h-17.688v11.295h17.688v-11.295Z" fill="#FF9400"></path><path d="M211.165 165.784h-1.974v11.295h1.974v-11.295Z" fill="#E5882E"></path><path opacity=".07" d="M195.969 175.982c-.149 0-.274-.158-.274-.352v-8.119c0-.195.123-.353.274-.353.151 0 .274.158.274.353v8.119c0 .194-.123.352-.274.352ZM198.696 175.982c-.148 0-.274-.158-.274-.352v-8.119c0-.195.123-.353.274-.353.152 0 .274.158.274.353v8.119c0 .194-.122.352-.274.352ZM201.567 175.844c-.148 0-.274-.158-.274-.353v-8.118c0-.196.123-.353.274-.353.151 0 .275.157.275.353v8.118c0 .195-.123.353-.275.353ZM204.157 175.844c-.149 0-.274-.158-.274-.353v-8.118c0-.196.122-.353.274-.353.152 0 .274.157.274.353v8.118c0 .195-.122.353-.274.353ZM206.88 175.844c-.149 0-.275-.158-.275-.353v-8.118c0-.196.123-.353.275-.353.151 0 .273.157.273.353v8.118c0 .195-.122.353-.273.353Z" fill="#fff"></path><path d="M131.398 165.784h17.688v-11.295h-17.688v11.295Z" fill="#E5882E"></path><path opacity=".2" d="M131.398 165.784h1.973v-11.295h-1.973v11.295Z" fill="#1D1D1B"></path><path opacity=".07" d="M146.591 164.687c.148 0 .274-.157.274-.353v-8.118c0-.195-.123-.353-.274-.353-.151 0-.275.158-.275.353v8.118c0 .196.123.353.275.353ZM143.867 164.687c.149 0 .275-.157.275-.353v-8.118c0-.195-.123-.353-.275-.353-.151 0-.273.158-.273.353v8.118c0 .196.122.353.273.353ZM140.993 164.549c.149 0 .274-.158.274-.353v-8.119c0-.195-.122-.352-.274-.352-.152 0-.274.157-.274.352v8.119c0 .195.122.353.274.353ZM138.407 164.549c.149 0 .274-.158.274-.353v-8.119c0-.195-.122-.352-.274-.352-.152 0-.274.157-.274.352v8.119c0 .195.123.353.274.353ZM135.681 164.549c.148 0 .273-.158.273-.353v-8.119c0-.195-.123-.352-.273-.352-.151 0-.275.157-.275.352v8.119c0 .195.123.353.275.353Z" fill="#fff"></path><path d="M175.796 177.218h17.688v-11.295h-17.688v11.295Z" fill="#FFE100"></path><path opacity=".07" d="M190.984 176.121c.149 0 .275-.158.275-.353v-8.119c0-.195-.123-.352-.275-.352-.151 0-.273.157-.273.352v8.119c0 .195.123.353.273.353ZM188.266 176.121c.149 0 .274-.158.274-.353v-8.119c0-.195-.123-.352-.274-.352-.15 0-.274.157-.274.352v8.119c0 .195.123.353.274.353ZM185.391 175.982c.149 0 .274-.158.274-.352v-8.119c0-.195-.123-.353-.274-.353-.15 0-.274.158-.274.353v8.119c0 .194.123.352.274.352ZM182.806 175.982c.148 0 .273-.158.273-.352v-8.119c0-.195-.123-.353-.273-.353-.151 0-.275.158-.275.353v8.119c0 .194.123.352.275.352ZM180.079 175.982c.149 0 .274-.158.274-.352v-8.119c0-.195-.122-.353-.274-.353-.152 0-.274.158-.274.353v8.119c-.002.194.122.352.274.352Z" fill="#fff"></path><path d="M140.476 177.079h17.688v-11.295h-17.688v11.295Z" fill="#164194"></path><path d="M140.48 177.079h1.973v-11.295h-1.973v11.295Z" fill="#0B65C4"></path><path opacity=".07" d="M155.673 175.982c.148 0 .273-.158.273-.352v-8.119c0-.195-.122-.353-.273-.353-.151 0-.275.158-.275.353v8.119c0 .194.123.352.275.352ZM152.946 175.982c.149 0 .274-.158.274-.352v-8.119c0-.195-.122-.353-.274-.353-.151 0-.274.158-.274.353v8.119c.001.194.123.352.274.352ZM150.075 175.844c.149 0 .274-.158.274-.353v-8.118c0-.196-.122-.353-.274-.353-.152 0-.274.157-.274.353v8.118c0 .195.122.353.274.353ZM147.489 175.844c.149 0 .274-.158.274-.353v-8.118c0-.196-.122-.353-.274-.353-.152 0-.274.157-.274.353v8.118c0 .195.122.353.274.353ZM144.762 175.844c.148 0 .274-.158.274-.353v-8.118c0-.196-.123-.353-.274-.353-.152 0-.274.157-.274.353v8.118c0 .195.123.353.274.353Z" fill="#fff"></path><path d="M202.329 154.626h-17.688v11.295h17.688v-11.295Z" fill="#164194"></path><path opacity=".2" d="M202.325 154.626h-1.973v11.295h1.973v-11.295Z" fill="#1D1D1B"></path><path opacity=".07" d="M187.134 164.824c-.149 0-.275-.158-.275-.353v-8.118c0-.195.123-.353.275-.353.151 0 .274.158.274.353v8.118c0 .195-.123.353-.274.353ZM189.86 164.824c-.148 0-.274-.158-.274-.353v-8.118c0-.195.123-.353.274-.353.152 0 .274.158.274.353v8.118c0 .195-.123.353-.274.353ZM192.727 164.686c-.148 0-.274-.159-.274-.353v-8.119c0-.195.123-.352.274-.352.152 0 .275.157.275.352v8.119c0 .194-.123.353-.275.353ZM195.317 164.686c-.148 0-.274-.159-.274-.353v-8.119c0-.195.123-.352.274-.352.152 0 .274.157.274.352v8.119c0 .194-.123.353-.274.353ZM198.039 164.686c-.149 0-.273-.159-.273-.353v-8.119c0-.195.122-.352.273-.352.151 0 .274.157.274.352v8.119c-.001.194-.122.353-.274.353Z" fill="#fff"></path><path d="m186.404 175.115-1.263 2.226h27.33v-2.226h-26.067ZM104.456 175.031l.488 2.226H55.816v-2.226h48.64Z" fill="#1D1D1B"></path><path d="M82.125 148.086h-8.828v10.36h8.828v-10.36Z" fill="#E2E2E2"></path><path d="M76.136 149.432H74.32v2.882h1.816v-2.882ZM78.62 149.432h-1.815v2.882h1.816v-2.882ZM81.101 149.432h-1.816v2.882h1.816v-2.882ZM76.136 153.892H74.32v2.882h1.816v-2.882ZM81.101 153.892h-1.816v2.882h1.816v-2.882Z" fill="#BBB"></path><path d="M75.42 146.629h-.63v1.457h.63v-1.457Z" fill="#BCBCBC"></path><path d="m943.974 189.433.148.016s.558.837.525.985c-.049.164-1.559.082-1.559.082s-.69-.492-.608-1.116c.033-.295.624-1.756.837-1.953.493-.493.821.476.821.476l-1.149 1.247.985.263Z" fill="#BE7160"></path><path d="M944.938 184.229s-.411.805-.345.985c.065.197.197.69.23 1.33.032.64-.263 1.953-.279 2.15-.017.197-.099 1.461-.575 1.428-.427-.032-.295-1.378-.295-1.493 0-.115.032-.952-.099-.952-.115 0-.525-1.773-.066-2.315.46-.525 1.429-1.133 1.429-1.133Z" fill="#E3A184"></path><path d="M943.789 187.726s-.344.164-.476.345c-.115.196-.312 1.641-.312 1.641s.952.673 1.051.968c.098.296.082.559-.033.509-.657-.279-1.346-.689-1.641-1.165-.197-.328-.23-1.527-.23-1.527s-.164-.328-.132-.574c.033-.246.657-1.773.657-1.773l.328-2.2 1.921.279-1.133 3.497Z" fill="#E3A184"></path><path d="M944.088 160.133c-.509 2.528-.279 10.554-.854 13.919-.59 3.382-1.28 10.9-1.28 10.916 0-.016 1.543.361 2.594.296.87-1.708.508-7.059.508-7.059s3.776-17.432-.968-18.072Z" fill="#E62D20"></path><path d="m947.734 216.369-1.493 1.363-1.034-1.904v-2.397l2.527-.098v3.036Z" fill="#BE7160"></path><path d="M953.344 177.286s-3.743 19.222-3.891 20.715c-.164 1.494.312 10.161-1.411 16.957 0 0-1.97.147-3.168-.082-.099-2.807-.46-14.051-.493-15.873-.032-2.594-.131-17.268-.131-17.268s7.616-8.044 9.094-4.449Z" fill="#1D1D1B"></path><path d="m954.625 217.009 2.363-.64-.049-3.053h-2.511l.197 3.693Z" fill="#BE7160"></path><path d="M958.777 181.554s-.837 8.995-1.149 17.301c.542 6.943-.049 14.872-.049 15.84-.657.591-3.381.131-3.381.131-.033-1.822-1.002-9.684-1.773-15.61-1.133-8.7-2.774-18.269-2.774-18.269s7.682-3.004 9.126.607ZM957.924 219.094c.148 1.001-.936 1.592-2.085 1.592s-2.166-.541-1.953-1.592c.115-.607.312-1.428.492-2.216.181-.788.706-1.362 1.396-1.362.656 0 1.181.541 1.411 1.264.279.968.624 1.559.739 2.314Z" fill="#1D1D1B"></path><path d="m954.968 217.19-.082-.099c.262-.229.591-.377.919-.377.427 0 .772.246.886.361l-.082.098c-.115-.098-.426-.328-.804-.328-.443 0-.755.263-.837.345ZM954.805 217.945l-.082-.099a1.66 1.66 0 0 1 1.067-.426c.509 0 .903.279 1.034.41l-.082.099c-.131-.115-.492-.378-.952-.378-.345-.016-.706.148-.985.394Z" fill="#DDD"></path><path d="M947.765 216.172s.427 1.445.41 1.822c-.016.378-.065 1.675-.065 1.675l-2.348.016v-.312l-1.871.361c-.739 0-5.105 0-5.072-.033-.033-.689.295-1.395 2.643-2.019 1.97-.508 3.726-2.035 3.726-2.035s.706 1.182 2.577.525Z" fill="#1D1D1B"></path><path d="M943.579 216.779c.295.263.426.608.476.756l-.132.032a1.614 1.614 0 0 0-.476-.722c0-.016.066-.082.132-.066ZM944.235 216.369c.23.247.345.526.394.673l-.131.033a1.482 1.482 0 0 0-.378-.624c.033-.082.099-.082.115-.082Z" fill="#DDD"></path><path d="M945.122 173.117c0 .016-1.034-12.984-1.034-12.984s5.072-2.495 5.811-2.709a270.32 270.32 0 0 1 3.233-.525l7.239 2.774s-1.313 6.862-1.641 13.624c-.263 5.302.558 10.686.623 12.525-.968-.493-4.284-2.019-4.284-2.019-.591.706-1.428 1.264-2.396 1.707-3.201.476-3.431-5.269-3.431-6.812 0-.017-.033-.017-.033 0l-.821 8.01c-2.593.41-4.858.378-4.858.378-.017 0 1.592-13.953 1.592-13.969Z" fill="#E62D20"></path><path d="m958.648 183.245-1.74-1.1-1.822 1.625s1.888 2.019 2.446 1.871c.443-.574 1.116-2.396 1.116-2.396Z" fill="#E3A184"></path><path d="m956.267 181.751 2.708 1.707s5.236-5.877 5.778-8.651c.427-2.199-1.33-10.078-4.366-15.134-1.576.427-2.758 2.791-2.643 5.877.098 3.266 2.725 8.272 2.725 8.272l-4.202 7.929Z" fill="#E62D20"></path><path d="m949.833 169.834.066-12.41 3.234-.525-3.3 12.935Z" fill="#fff"></path><path d="M953.148 156.948s-1.099 1.231-2.33 1.281c-.723.033-.903-.837-.903-.837l.279-3.628 2.708-.493.246 3.677Z" fill="#E3A184"></path><path d="m954.035 157.26.328 1.773-.837.263.706.771-4.399 9.767 3.299-13.329.903.755ZM949.98 156.768l-.673.903-.689 1.296.706.394-.772.509 1.281 9.964.147-13.066Z" fill="#E62D20"></path><path d="M947.766 165.238v.64l-2.643-.115v-.657l2.643.132Z" fill="#1D1D1B"></path><path d="m953 154.979-.098-1.461-2.725.246-.181 2.479h.279c1.034 0 2.183-.706 2.725-1.264Z" fill="#BE7160"></path><path d="M954.477 151.039c.066-.87.295-3.299-.624-3.43-.821-1.593-4.12-3.037-5.072-2.463-.952.575.64 1.478.213 1.658-.443.181-.377-.558-.705-.656-1.281 1.313-.033 5.088-.033 5.088l3.89-1.789s0 3.825.952 3.825c.558 0 1.28-1.018 1.379-2.233Z" fill="#1D1D1B"></path><path d="m953.574 147.444.082-.049c-.525-1.083-1.428-1.74-2.101-2.101-.722-.377-1.313-.525-1.329-.525l-.017.098s.608.148 1.313.526c.641.361 1.527 1.001 2.052 2.051Z" fill="#1D1D1B"></path><path d="M948.303 150.629s-.345-.23-.624.131-.098 1.724.591 1.724c.673 0 .033-1.855.033-1.855ZM953.708 150.53c.131-.147.443-.262.771.164.345.427.115 2.003-.739 2.003-.853 0-.377-1.756-.032-2.167Z" fill="#E3A184"></path><path d="M953.395 150.268c-.246-1.658-1.674-2.528-3.184-2.528-1.51 0-2.265 1.001-2.265 2.511l.016 2.036c0 1.132.985 3.283 2.085 3.283 1.264 0 3.414-1.675 3.414-2.775-.016-.098.033-1.904-.066-2.527Z" fill="#E3A184"></path><path d="M950.521 150.202s1.132-.115 1.346-.098c.361.032.443.262.492.394.017.049-1.477.197-1.69.115-.214-.066-.148-.411-.148-.411ZM949.405 150.202s-1.133-.115-1.346-.098c-.05 0-.083.016-.115.016-.115.033-.115.427-.017.443.46.05 1.182.099 1.33.05.213-.066.148-.411.148-.411Z" fill="#1D1D1B"></path><path d="M949.601 151.811a1.451 1.451 0 0 0-.164-.919.929.929 0 0 0-.64-.476c-.033 0-.082-.017-.115-.017-.493 0-.936.476-1.018 1.1-.049.328.017.657.164.919a.929.929 0 0 0 .64.476c.033 0 .082.017.115.017.493.016.936-.46 1.018-1.1Zm-.837-1.297c.23.033.443.197.574.427.148.246.197.542.165.853-.083.575-.476 1.018-.92 1.018-.033 0-.065 0-.115-.016-.229-.033-.443-.197-.574-.427-.148-.246-.197-.542-.164-.854.082-.574.476-1.017.919-1.017a.286.286 0 0 0 .115.016ZM951.441 152.911c.542-.083.903-.706.821-1.396-.082-.623-.525-1.099-1.018-1.099-.033 0-.082 0-.115.016-.262.033-.492.213-.64.476a1.452 1.452 0 0 0-.164.919c.082.624.525 1.1 1.018 1.1.032 0 .065-.016.098-.016Zm.739-1.379c.082.623-.246 1.198-.739 1.28h-.115c-.459 0-.853-.443-.919-1.018-.033-.312.016-.607.164-.853.148-.246.345-.394.575-.427h.098c.46 0 .854.427.936 1.018Z" fill="#fff"></path><path d="m949.587 151.761-.066-.065c.132-.164.279-.247.427-.247.164 0 .312.083.427.247l-.066.065c-.098-.147-.229-.213-.361-.213-.131 0-.246.066-.361.213Z" fill="#fff"></path><path d="M909.168 213.87v1.622a1.549 1.549 0 0 0-1.194-.467 1.537 1.537 0 0 0-1.134.597v-1.687c.776.062 1.556.04 2.328-.065ZM918.822 214.089l.097 1.492-.089-.056c-1.047.365.097.859-.552.811-.649-.049-1.208-1.047-2.044-.811l-.097-1.509a8.069 8.069 0 0 0 2.685.073Z" fill="#E3A184"></path><path d="M908.094 215.054c.41.008.8.177 1.087.471.237.225.418.503.527.811.348.789.638 1.602.868 2.433.162 1.03-1.111 1.322-2.434 1.306-1.322-.016-2.49-.276-2.246-1.354.146-.625.373-1.469.584-2.288.07-.295.202-.572.389-.811a1.543 1.543 0 0 1 1.225-.568Z" fill="#1D1D1B"></path><path d="M919.144 183.128c.211-1.285.235-2.594.073-3.886.215 0 .429-.019.641-.056l.349 1.622c.068.245.093.5.073.754a2.299 2.299 0 0 1-.26.698 8.35 8.35 0 0 1-1.395 2.174.646.646 0 0 1-.154.105c-.049-.446-.106-.9-.162-1.346a4.84 4.84 0 0 0 .835-.065ZM909.514 157.415c-.098-.357-.203-.69-.301-1.006l.073-2.774h.065l-.056-.227v-.074a34.46 34.46 0 0 1-.268-1.119 1.73 1.73 0 0 0-.138-.438 2.548 2.548 0 0 0-.251-.324 1.139 1.139 0 0 1-.187-1.168.689.689 0 0 1 .464-.373.697.697 0 0 1 .582.121c.268-1.119 1.825-1.119 3.164-.754a2.058 2.058 0 0 0 1.703-.325c0 .122.073.244.097.357a7.288 7.288 0 0 1 0 3.658 2.543 2.543 0 0 1-.916 1.517c-.21.14-.448.231-.698.268a68.734 68.734 0 0 0-.105 2.223 3.846 3.846 0 0 1-3.228.438Z" fill="#E3A184"></path><path d="M912.653 149.295c-1.339-.365-2.896-.365-3.164.754a.708.708 0 0 0-.582-.12.688.688 0 0 0-.464.372 1.136 1.136 0 0 0 .186 1.168c.093.101.177.209.252.324.065.14.112.287.138.438.065.3.186.811.267 1.12v.097l.057.227h-.065a3.312 3.312 0 0 1-1.387-1.517 5.502 5.502 0 0 1-.535-2.433 3.524 3.524 0 0 1 .811-2.271c.99-1.095 2.604-1.29 3.975-1.825.129.243.048.486-.284.608.85.219 1.75.135 2.547-.235.77.422.811 1.849.348 2.514a2.02 2.02 0 0 1-.454.455 2.067 2.067 0 0 1-1.646.324Z" fill="#FFE100"></path><path d="M912.637 158.29c-.178 3.156-.34 6.863-.503 9.515-.689-3.042-1.508-6.489-2.263-9.255a23.513 23.513 0 0 0-.324-1.136 3.822 3.822 0 0 0 3.147-.421v.316c-.024.276-.04.649-.057.981Z" fill="#fff"></path><path d="M898.816 173.134c.795-4.53 1.854-9.009 3.172-13.416a11.56 11.56 0 0 1 3.553-1.622 18.161 18.161 0 0 0 3.69-1.622c.098.316.203.649.301 1.005.097.357.219.739.324 1.136.754 2.742 1.574 6.213 2.263 9.255.162-2.652.325-6.359.503-9.515 0-.332 0-.673.057-.989v-.649c1.079.422 3.674 1.273 4.996 2.271.609 5.946 2.734 20.125 2.734 20.125l-.6.137a3.629 3.629 0 0 1-.641.057 13.567 13.567 0 0 1-.073 3.886c-.276 0-.552.073-.811.097.057.446.113.9.162 1.346.53 5.798.736 11.62.616 17.44v12.021l-.267.057c-.889.15-1.796.15-2.685 0l-.235-.049c-.811-3.472-1.501-11.056-.909-15.412-.405-1.711-1.979-6.245-3.106-10.033-.082.357-.171.713-.244 1.07a50.324 50.324 0 0 0-.714 5.054 171.364 171.364 0 0 0-1.314 19.102l-.446.081a10.84 10.84 0 0 1-2.312.098h-.397c-.17-1.793-.365-3.367-.535-5.151a34.06 34.06 0 0 1-.154-7.552c.121-.957.324-1.906.389-2.871a19.14 19.14 0 0 0-.057-2.645c-.276-4.185-.546-8.365-.811-12.54h-.9s0-1.784.089-4.477a18.544 18.544 0 0 1-5.638-5.695Zm8.882 7.236h-.048l-.236.073-.243.081.243-.081.236-.073h.048a1.803 1.803 0 0 0 1.31-.647 1.795 1.795 0 0 0 .394-1.405l-1.355-.609c-.476.383-.921.804-1.33 1.258.261.51.591.982.981 1.403Zm-1.703-13.79 1.736 1.744h1.784l-1.744-1.744 1.744-1.735h-1.784l-1.736 1.735Zm4.396 17.034c.901 0 1.809.049 2.661.049a20.046 20.046 0 0 0 4.307-.284h-6.814c-2.092-.04-4.055-.057-4.737 0 1.274.057 2.896.162 4.583.211v.024Zm-5.84-9.312c.041-1.979.081-4.128.13-6.27a41.231 41.231 0 0 1-1.785 4.259 5.075 5.075 0 0 0 1.655 1.987v.024Z" fill="#FF9400"></path><path d="m908.072 177.701 1.355.609a3.125 3.125 0 0 1-1.703 2.052 6.25 6.25 0 0 1-.982-1.404 11.54 11.54 0 0 1 1.33-1.257Z" fill="#E3A184"></path><path d="M918.276 216.368c.649 0-.495-.478.551-.811l.09.057c1.062.543 5.767 1.728 6.27 1.987a.98.98 0 0 1 .577.595.983.983 0 0 1-.091.825c-.089.227-.535.235-.859.243-3.083.057-5.768.057-8.826 0a.4.4 0 0 1-.138 0 .195.195 0 0 1-.081-.146 7.143 7.143 0 0 1 .414-3.423h.049c.835-.373 1.395.665 2.044.673Z" fill="#1D1D1B"></path><path opacity=".4" d="M910.527 183.29h6.813a20.11 20.11 0 0 1-4.307.284c-.852 0-1.76 0-2.66-.049-1.688-.057-3.35-.154-4.6-.284.73-.008 2.661.008 4.754.049Z" fill="#1D1D1B"></path><path d="m907.732 166.548 1.744 1.744h-1.744l-1.736-1.744 1.736-1.736h1.744l-1.744 1.736Z" fill="#00D425"></path><path d="M909.426 178.31a1.798 1.798 0 0 1-.394 1.405 1.783 1.783 0 0 1-1.309.647 3.132 3.132 0 0 0 1.703-2.052ZM304.086 197.18a10.112 10.112 0 0 1 10.168 9.176h-1.067c.039.342.059.685.06 1.029a9.149 9.149 0 0 1-2.58 6.625 9.132 9.132 0 0 1-15.676-6.625c.001-.344.021-.687.059-1.029h-1.118a10.203 10.203 0 0 1 10.154-9.176Zm-5.525 10.205a5.524 5.524 0 1 0 10.953-1.029 5.52 5.52 0 0 0-5.428-4.498 5.522 5.522 0 0 0-5.525 5.527ZM357.376 198.528h10.198a10.02 10.02 0 0 1 5.043 7.828h-1.222c.039.342.058.685.059 1.029a9.13 9.13 0 0 1-17.636 3.574 9.112 9.112 0 0 1-.619-3.574c.001-.344.021-.687.059-1.029h-.963c.164-1.615.71-3.167 1.593-4.529a10.219 10.219 0 0 1 3.488-3.299Zm-.57 8.887a5.528 5.528 0 0 0 5.524 5.525 5.524 5.524 0 0 0 3.525-9.782 5.526 5.526 0 0 0-9.049 4.227v.03ZM497.047 199.706v6.65h-8.228l2.851-6.65h5.377ZM449.831 198.528h10.198a10.244 10.244 0 0 1 4.932 7.828h-.97c.038.342.058.685.059 1.029a9.13 9.13 0 1 1-18.256 0c.002-.344.021-.687.06-1.029h-1.207a10.12 10.12 0 0 1 5.184-7.828Zm-.437 8.887a5.528 5.528 0 0 0 5.525 5.525 5.524 5.524 0 0 0 5.428-6.554 5.523 5.523 0 0 0-10.953.999v.03ZM471.317 198.528h10.198a10.014 10.014 0 0 1 5.036 7.828h-.978c.039.342.058.685.059 1.029a9.13 9.13 0 0 1-17.636 3.574 9.112 9.112 0 0 1-.619-3.574c.001-.344.021-.687.059-1.029h-1.207a10.193 10.193 0 0 1 5.088-7.828Zm-.333 8.887a5.528 5.528 0 0 0 5.524 5.525 5.524 5.524 0 0 0 5.525-5.525 5.221 5.221 0 0 0-.104-1.029 5.514 5.514 0 0 0-5.424-4.511 5.518 5.518 0 0 0-5.425 4.511 5.235 5.235 0 0 0-.096.999v.03ZM428.191 198.528h10.153a10.159 10.159 0 0 1 4.992 7.828h-.97c.038.342.058.685.059 1.029a9.13 9.13 0 1 1-18.256 0c.001-.344.021-.687.06-1.029h-1.207c.171-1.624.73-3.182 1.63-4.544a10.173 10.173 0 0 1 3.539-3.284Zm-.378 8.887a5.528 5.528 0 0 0 5.525 5.525 5.528 5.528 0 0 0 5.525-5.525 5.523 5.523 0 0 0-10.954-1.029 5.317 5.317 0 0 0-.096.999v.03ZM275.26 198.365v-.837h18.463c-.419.398-.81.823-1.17 1.274a15.922 15.922 0 0 0-3.141 7.539c-.05.342-.082.685-.096 1.03h3.237v2.525h-22.455v-.74h4.325a.83.83 0 0 0 .594-.248.834.834 0 0 0 .243-.597v-7.406a.823.823 0 0 0-.243-.594.84.84 0 0 0-.594-.242h-4.325v-.867h4.325a.837.837 0 0 0 .837-.837Zm1.37 5.555h11.664a.427.427 0 0 0 .34-.103.434.434 0 0 0 .108-.501.44.44 0 0 0-.267-.233.427.427 0 0 0-.181-.015H276.63a.43.43 0 0 0 0 .852Zm0-2.037h11.664a.419.419 0 0 0 .397-.259.433.433 0 0 0-.397-.593H276.63a.427.427 0 0 0-.422.43.426.426 0 0 0 .118.308.424.424 0 0 0 .304.129v-.015Zm0-2.029h11.664a.427.427 0 0 0 .34-.103.434.434 0 0 0 .108-.5.434.434 0 0 0-.267-.234.427.427 0 0 0-.181-.015H276.63a.43.43 0 0 0 0 .852ZM323.211 199.943a2.081 2.081 0 0 0-.637 1.481v5.339h-1.555v-6.843l2.192.023ZM344.767 199.943h2.436v6.843h-1.807v-5.34a2.077 2.077 0 0 0-.629-1.503Z" fill="#000"></path><path d="M347.203 198.528h10.176a10.219 10.219 0 0 0-3.488 3.299 10.223 10.223 0 0 0-1.644 5.558h-5.044v-8.887.03ZM417.401 206.008l-3.192-3.903v-.245h6.465v-1.77h-6.465v-1.562h13.982a10.2 10.2 0 0 0-5.132 7.828c0 .341-.052.681-.052 1.029h-2.333V206l-3.273.008ZM438.343 198.528h11.45a10.12 10.12 0 0 0-5.236 8.857h-1.17a9.557 9.557 0 0 0-.052-1.029 10.161 10.161 0 0 0-4.992-7.828ZM481.517 198.528h18.803v1.17h-8.65l-2.851 6.665-.393.911h-1.829c0-.301-.015-.605-.044-.911a10.022 10.022 0 0 0-5.036-7.835ZM460.034 198.528h11.286a10.19 10.19 0 0 0-5.088 7.828c0 .341-.051.681-.051 1.029h-1.171c0-.348 0-.688-.044-1.029a10.24 10.24 0 0 0-4.932-7.828Z" fill="#1D1D1B"></path><path d="M267.819 184.39h1.481v-10.272h2.156l4.443-18.248h-2.51l.955-4.088h2.177c4.888-3.266 23.159-7.999 39.444-7.68v7.68h1.43v47.679h-3.903v-5.54h-9.628c-4.74 0-7.954 1.541-10.124 3.607h-18.463v-5.051a.837.837 0 0 0-.837-.837h-4.443a.843.843 0 0 0-.741.482h-1.407l-.03-7.732Zm34.186-4.444a.54.54 0 0 0 .533-.54v-.045a.534.534 0 0 0-.533-.533h-6.206a.74.74 0 0 0-.741.741v.429a.74.74 0 0 0 .741.741h2.222a.74.74 0 0 0 .74-.741v-.089l3.244.037Zm-29.824-3.88a.412.412 0 0 0 .171.34l2.555 1.918v3.007c0 1.741 2.399 1.83 2.399 1.83v-1.571h11.05l3.481-7.324h10.812v-17.315h-23.417l-2.733 13.553a1.828 1.828 0 0 0-1.592 1.696v5.036l-1.874-1.407v-2.644a.43.43 0 0 0-.731-.304.434.434 0 0 0-.121.304v2.881Z" fill="#fff"></path><path d="M271.424 174.118h-2.163v-.718l4.088-17.53h2.518l-4.443 18.248Z" fill="#768692"></path><path d="M272.602 172.748a.421.421 0 0 1 .304.126c.039.04.071.087.093.139a.44.44 0 0 1 .032.165v2.651l1.874 1.407V172.2a1.833 1.833 0 0 1 1.592-1.696c.265-.067.535-.109.808-.126v12.761s-2.4-.089-2.4-1.83v-3.006l-2.555-1.919a.412.412 0 0 1-.17-.34v-2.859a.423.423 0 0 1 .422-.437ZM298.025 180.783h-2.221a.74.74 0 0 1-.741-.74v-.43a.742.742 0 0 1 .741-.74h6.206a.534.534 0 0 1 .533.533v.044a.54.54 0 0 1-.533.541h-3.2v.089a.742.742 0 0 1-.785.703Z" fill="#000"></path><path d="M289.412 206.356a15.931 15.931 0 0 1 3.14-7.539 12.61 12.61 0 0 1 1.171-1.274c2.169-2.066 5.384-3.606 10.123-3.606h9.628v5.524h7.569v7.791h-6.725c0-.303 0-.607-.044-.911a10.216 10.216 0 0 0-10.161-9.185 10.21 10.21 0 0 0-10.161 9.185 9.575 9.575 0 0 0-.052 1.03h-4.562c.007-.339.032-.678.074-1.015Z" fill="#1D1D1B"></path><path d="M304.084 201.861a5.525 5.525 0 0 1 5.429 4.495 5.524 5.524 0 1 1-5.429-4.495Zm-1.918 5.524a1.914 1.914 0 0 0 1.648 1.885 1.906 1.906 0 0 0 2.099-1.364 1.91 1.91 0 1 0-3.747-.521Z" fill="#FFE9C9"></path><path d="M304.083 205.467a1.93 1.93 0 0 1 1.785 1.186 1.93 1.93 0 0 1-.416 2.101 1.927 1.927 0 0 1-2.966-.296 1.922 1.922 0 0 1-.321-1.073 1.96 1.96 0 0 1 .296-1.029 1.929 1.929 0 0 1 1.622-.889Z" fill="#000"></path><path d="M362.331 201.861a5.529 5.529 0 0 1 5.524 5.524 5.524 5.524 0 1 1-5.524-5.524Zm-1.926 5.524a1.934 1.934 0 0 0 .519 1.438 1.909 1.909 0 0 0 1.403.607 1.929 1.929 0 0 0 1.811-1.272c.09-.247.127-.51.111-.773a1.97 1.97 0 0 0-.296-1.029 1.926 1.926 0 0 0-3.548 1.029Z" fill="#FFE9C9"></path><path d="M362.332 205.467a1.932 1.932 0 0 1 1.622.889c.192.309.295.665.296 1.029a1.915 1.915 0 0 1-1.184 1.773 1.92 1.92 0 1 1-.734-3.691Z" fill="#000"></path><path d="M433.338 201.861a5.538 5.538 0 0 1 5.429 4.495 5.524 5.524 0 1 1-5.429-4.495Zm-1.925 5.524c-.016.263.021.526.11.773a1.937 1.937 0 0 0 1.047 1.114 1.937 1.937 0 0 0 1.529 0 1.919 1.919 0 0 0 1.047-1.114c.089-.247.127-.51.111-.773a1.96 1.96 0 0 0-.297-1.029 1.926 1.926 0 0 0-3.547 1.029Z" fill="#FFE9C9"></path><path d="M433.34 205.467a1.925 1.925 0 0 1 1.622.889 1.923 1.923 0 0 1-.888 2.802 1.92 1.92 0 1 1-.734-3.691Z" fill="#000"></path><path d="M454.92 201.861a5.525 5.525 0 1 1 .004 11.05 5.525 5.525 0 0 1-.004-11.05Zm-1.918 5.524a1.914 1.914 0 0 0 1.648 1.885 1.906 1.906 0 0 0 1.996-2.696 1.915 1.915 0 0 0-2.283-1.026 1.906 1.906 0 0 0-1.064.808 1.96 1.96 0 0 0-.297 1.029Z" fill="#FFE9C9"></path><path d="M454.923 205.467a1.93 1.93 0 0 1 1.784 1.186 1.922 1.922 0 0 1-1.403 2.629 1.923 1.923 0 0 1-1.978-.824 1.93 1.93 0 0 1-.322-1.073 1.96 1.96 0 0 1 .297-1.029 1.92 1.92 0 0 1 1.622-.889Z" fill="#000"></path><path d="M476.51 201.861a5.52 5.52 0 0 1 5.421 4.495c.069.339.103.684.104 1.029a5.524 5.524 0 1 1-5.525-5.524Zm-1.925 5.524a1.933 1.933 0 0 0 .518 1.438 1.929 1.929 0 0 0 2.168.449 1.919 1.919 0 0 0 1.047-1.114c.089-.247.127-.51.11-.773a1.95 1.95 0 0 0-.296-1.029 1.926 1.926 0 0 0-3.547 1.029Z" fill="#FFE9C9"></path><path d="M476.508 205.467a1.925 1.925 0 0 1 1.622.889c.192.309.294.665.296 1.029a1.916 1.916 0 0 1-1.184 1.773 1.923 1.923 0 0 1-2.091-.416 1.923 1.923 0 0 1-.415-2.091 1.915 1.915 0 0 1 1.772-1.184Z" fill="#000"></path><path d="M269.981 191.655h4.444a.838.838 0 0 1 .837.837v5.925a.828.828 0 0 1-.243.596.839.839 0 0 1-.594.248h-4.444a.846.846 0 0 1-.844-.844v-5.925a.864.864 0 0 1 .844-.837ZM275.262 200.927v7.406a.83.83 0 0 1-.243.597.836.836 0 0 1-.594.248h-4.444a.843.843 0 0 1-.844-.845v-7.406a.843.843 0 0 1 .248-.594.829.829 0 0 1 .596-.242h4.444a.837.837 0 0 1 .837.836Z" fill="#1D1D1B"></path><path d="M277.305 176.51v-6.132a4.415 4.415 0 0 0-.807.126l2.733-13.553h23.417v17.293h-10.812l-3.481 7.324h-11.05v-5.058Z" fill="#768692"></path><path d="M323.215 199.942a2.084 2.084 0 0 1 1.481-.599h18.618a2.093 2.093 0 0 1 2.096 2.103v6.843a2.105 2.105 0 0 1-2.096 2.103h-18.618a2.1 2.1 0 0 1-1.487-.616 2.1 2.1 0 0 1-.617-1.487v-6.843a2.088 2.088 0 0 1 .623-1.504Z" fill="#1D1D1B"></path><path d="M374.595 206.008h5.303v-4.147h-4.807v-1.77h4.807v-1.563h-60.921v-58.899h193.472v58.899h-98.254v1.563h6.48v1.77h-6.48v4.147h6.48v1.777h-46.08v-1.777Zm38.148-7.48H381.32v1.563h31.394l.029-1.563Zm0 3.333H381.32v4.147h31.394l.029-4.147Z" fill="#fff"></path><path d="M276.631 199.017h11.664a.425.425 0 0 1 .34.103.427.427 0 0 1 0 .646.436.436 0 0 1-.34.103h-11.664a.432.432 0 0 1 0-.852ZM276.629 201.046h11.664a.43.43 0 0 1 .303.731.43.43 0 0 1-.303.121h-11.664a.424.424 0 0 1-.299-.724.43.43 0 0 1 .299-.128ZM276.631 203.083h11.664a.436.436 0 0 1 .448.248.433.433 0 0 1-.108.5.425.425 0 0 1-.34.103h-11.664a.43.43 0 0 1 0-.851Z" fill="#ADADAD"></path><path d="m464.467 153.537 14.109 14.108-14.109 14.109h-14.115l14.115-14.109-14.115-14.108h14.115Z" fill="#00D425"></path><path d="M1212.42 216.429v-2.23h4.61v2.23h5.85v-2.23h4.61v2.23h5.86v-2.23h1.98a8.346 8.346 0 0 1-2.53-5.178 8.382 8.382 0 0 1 1.41-5.587h-1.45v-5.382h40.66v5.382h-1.45a8.38 8.38 0 0 1 1.3 3.105c.21 1.112.2 2.257-.03 3.365a8.338 8.338 0 0 1-1.36 3.081 8.254 8.254 0 0 1-2.46 2.298v1.123h5.86v-2.23h4.61v2.23h5.85v-2.23h4.61v2.23h5.86v-2.23h4.61v2.23h5.85v-2.23h4.61v2.23h5.86v-2.23h4.61v2.23h5.85v-2.23h4.61v2.23h5.86v-1.469a8.368 8.368 0 0 1-3.37-5.352 8.403 8.403 0 0 1 1.34-6.182h-1.38v-5.382h40.66v5.382h-1.54a8.385 8.385 0 0 1 1.42 5.586 8.393 8.393 0 0 1-2.52 5.179h1.45v2.23h5.85v-2.23h4.61v2.23h6.02v-2.23h4.61v2.23h5.85v-2.23h4.62v2.23h5.85v-2.23h4.61v2.23h5.85v-2.23h4.62v2.23h3.85v-2.23h4.61v2.23h3.22v1.538h-227.48v-1.538l1.6.031Zm124.27-8.258c0 1.321.41 2.611 1.17 3.69a6.418 6.418 0 0 0 3.09 2.338c.6.213 1.24.332 1.88.354h.25c1.29 0 2.54-.39 3.61-1.117a6.352 6.352 0 0 0 2.34-2.959 6.375 6.375 0 0 0-1.64-7.028h-8.62a6.36 6.36 0 0 0-2.08 4.722Zm36.71 0c0-.887-.18-1.763-.54-2.575a6.485 6.485 0 0 0-1.53-2.139h-8.64a6.444 6.444 0 0 0-1.72 2.624 6.393 6.393 0 0 0-.27 3.128 6.49 6.49 0 0 0 1.26 2.877 6.384 6.384 0 0 0 8.54 1.437 6.44 6.44 0 0 0 2.13-2.309c.5-.935.77-1.981.77-3.043Zm-3.76 8.258v-.315c-.42.141-.86.246-1.29.315h1.29Zm-5.85-.538v.538h1.89a8.486 8.486 0 0 1-1.89-.538Zm-2.58-1.692a8.346 8.346 0 0 1-2.53-5.179 8.327 8.327 0 0 1 1.42-5.586h-.21l-2.99 4.713h-3.61l-2.99-4.713h-.31a8.39 8.39 0 0 1 1.42 5.587 8.346 8.346 0 0 1-2.53 5.178h4.43v2.23h5.85v-2.23h2.05Zm-12.53 2.23v-2.046a8.368 8.368 0 0 1-4.27 2.046h4.27Zm-113.91-8.258c0 1.062.26 2.108.77 3.043a6.397 6.397 0 0 0 5.1 3.326 6.37 6.37 0 0 0 3.09-.521 6.363 6.363 0 0 0 3.73-4.81 6.39 6.39 0 0 0-.26-3.128 6.367 6.367 0 0 0-1.73-2.624h-8.65a6.33 6.33 0 0 0-1.52 2.14 6.172 6.172 0 0 0-.53 2.574Zm36.71 0c0-.887-.19-1.763-.54-2.575a6.485 6.485 0 0 0-1.53-2.139h-8.64a6.41 6.41 0 0 0-1.89 3.196 6.34 6.34 0 0 0 .21 3.707 6.37 6.37 0 0 0 2.23 2.968 6.392 6.392 0 0 0 3.51 1.225h.26a6.537 6.537 0 0 0 2.13-.362 6.39 6.39 0 0 0 3.08-2.334 6.483 6.483 0 0 0 1.18-3.686Zm-12.51 6.028v2.23h4.76a8.34 8.34 0 0 1-3.81-1.66 8.312 8.312 0 0 1-2.54-3.293 8.275 8.275 0 0 1-.64-4.11 8.345 8.345 0 0 1 1.42-3.909h-.29l-2.99 4.714h-3.6l-2.99-4.714h-.24a8.39 8.39 0 0 1 1.42 5.587 8.408 8.408 0 0 1-2.54 5.178h1.54v2.23h5.85v-2.23l4.65-.023Zm-15.11 2.23v-.346c-.44.155-.9.271-1.37.346h1.37Zm-5.85-.508v.508h1.81c-.62-.1-1.23-.27-1.81-.508Z" fill="#1D1D1B"></path><path d="m1281.44 208.094-1.04-4.637h47.37l-1.04 4.637h-45.29ZM1384.32 199.459h1.97c0-.271.05-.538.15-.788.11-.249.26-.476.45-.667a2.059 2.059 0 0 1 1.46-.598h2.68a2.003 2.003 0 0 1 1.45.599c.2.19.35.417.45.667.1.249.15.517.15.787v1.96c0 .27-.05.537-.15.786a2.2 2.2 0 0 1-.45.666c-.19.191-.41.342-.66.445a2.08 2.08 0 0 1-.79.156h-2.68c-.55 0-1.07-.216-1.46-.6-.38-.385-.6-.907-.6-1.453v-.046h-2.36c.26-.514.39-1.08.39-1.653v-.261ZM1224.24 201.335h-2.36v.046a2.06 2.06 0 0 1-2.05 2.053h-2.69a2.06 2.06 0 0 1-2.05-2.053v-1.922c0-.27.05-.537.15-.786.11-.249.26-.476.45-.666.19-.191.41-.342.66-.445.25-.103.52-.156.79-.156h2.69a2.048 2.048 0 0 1 2.05 2.053h1.97v.223c0 .573.13 1.138.39 1.653Z" fill="#1D1D1B"></path><path d="M1225.93 137.668h156.86v57.116h-156.86v-57.116Z" fill="#fff"></path><g opacity=".05" fill="#1D1D1B"><path d="M1378.34 142.273h-1.99v48.396h1.99v-48.396ZM1372.98 142.273h-1.99v48.396h1.99v-48.396ZM1367.62 142.273h-1.99v48.396h1.99v-48.396ZM1362.26 142.273h-1.99v48.396h1.99v-48.396ZM1356.9 142.273h-1.99v48.396h1.99v-48.396ZM1351.54 142.273h-1.99v48.396h1.99v-48.396ZM1346.18 142.273h-1.99v48.396h1.99v-48.396ZM1340.82 142.273h-1.99v48.396h1.99v-48.396ZM1335.46 142.273h-1.99v48.396h1.99v-48.396ZM1330.1 142.273h-1.99v48.396h1.99v-48.396ZM1324.73 142.273h-1.99v48.396h1.99v-48.396ZM1319.37 142.273h-1.99v48.396h1.99v-48.396ZM1314.01 142.273h-1.99v48.396h1.99v-48.396ZM1308.66 142.273h-2v48.396h2v-48.396ZM1303.3 142.273h-2v48.396h2v-48.396ZM1297.94 142.273h-1.99v48.396h1.99v-48.396ZM1292.57 142.273h-1.99v48.396h1.99v-48.396ZM1287.21 142.273h-1.99v48.396h1.99v-48.396ZM1281.85 142.273h-1.99v48.396h1.99v-48.396ZM1276.49 142.273h-1.99v48.396h1.99v-48.396ZM1271.13 142.273h-1.99v48.396h1.99v-48.396ZM1265.77 142.273h-1.99v48.396h1.99v-48.396ZM1260.41 142.273h-1.99v48.396h1.99v-48.396ZM1255.05 142.273h-2v48.396h2v-48.396ZM1249.69 142.273h-1.99v48.396h1.99v-48.396ZM1244.33 142.273h-1.99v48.396h1.99v-48.396ZM1238.97 142.273h-1.99v48.396h1.99v-48.396ZM1233.61 142.273h-1.99v48.396h1.99v-48.396Z"></path></g><path d="M1232.79 203.457h-5.19c-.71-.001-1.4-.2-2-.575a3.792 3.792 0 0 1-1.4-1.547 3.785 3.785 0 0 1-.38-1.653v-1.592h8.94l.03 5.367ZM1334.78 203.457h-61.33v-5.367h61.33v5.367ZM1384.32 198.09v1.592c0 .573-.13 1.139-.39 1.653a3.769 3.769 0 0 1-3.39 2.122h-5.09v-5.382l8.87.015Z" fill="#1D1D1B"></path><path d="M1363.29 198.09h-139.44v-3.307h160.47v3.307h-21.03Z" fill="#BBB"></path><path d="M1265.09 214.56h-.27a6.372 6.372 0 0 1-3.5-1.225 6.367 6.367 0 0 1-2.23-2.967 6.343 6.343 0 0 1-.21-3.708c.3-1.229.96-2.341 1.89-3.195h8.64a6.341 6.341 0 0 1 1.77 2.743c.34 1.053.41 2.176.19 3.261a6.367 6.367 0 0 1-1.45 2.928 6.43 6.43 0 0 1-2.7 1.833c-.69.228-1.41.34-2.13.33Zm2.2-6.39c0-.436-.13-.863-.37-1.226a2.207 2.207 0 0 0-2.26-.938c-.43.085-.83.295-1.13.604-.31.309-.52.702-.61 1.13-.08.428-.04.872.13 1.275a2.2 2.2 0 0 0 2.04 1.362c.29.001.57-.055.84-.166.27-.11.51-.273.72-.478.2-.205.37-.449.48-.717.11-.268.16-.555.16-.846Z" fill="#FFE9C9"></path><path d="M1265.09 210.378a2.207 2.207 0 0 0 0-4.414c-1.22 0-2.21.988-2.21 2.207a2.21 2.21 0 0 0 2.21 2.207Z" fill="#000"></path><path d="M1247.59 208.171a6.384 6.384 0 0 1-2.92 5.306c-.89.575-1.9.92-2.96 1.006a6.347 6.347 0 0 1-3.07-.516 6.372 6.372 0 0 1-2.47-1.913 6.42 6.42 0 0 1-1.27-2.854 6.332 6.332 0 0 1 .24-3.114 6.332 6.332 0 0 1 1.68-2.629h8.63c.67.592 1.2 1.318 1.57 2.13.37.812.56 1.692.57 2.584Zm-6.39-2.207a2.2 2.2 0 0 0-2.04 1.362c-.17.403-.21.847-.13 1.275.09.428.3.821.61 1.13a2.201 2.201 0 0 0 3.39-.334c.25-.363.37-.79.37-1.226.01-.294-.05-.584-.16-.855a2.308 2.308 0 0 0-.49-.722 2.242 2.242 0 0 0-.73-.476c-.28-.108-.57-.16-.86-.154h.04Z" fill="#FFE9C9"></path><path d="M1241.16 210.378a2.21 2.21 0 0 0 2.21-2.207c0-1.219-.99-2.207-2.21-2.207s-2.21.988-2.21 2.207a2.21 2.21 0 0 0 2.21 2.207Z" fill="#000"></path><path d="M1367.01 214.56c-1.29 0-2.55-.389-3.61-1.116a6.438 6.438 0 0 1-2.35-2.96 6.383 6.383 0 0 1-.27-3.767c.3-1.254.96-2.39 1.91-3.26h8.64a6.442 6.442 0 0 1 1.9 3.262 6.454 6.454 0 0 1-.27 3.764 6.436 6.436 0 0 1-2.35 2.957 6.396 6.396 0 0 1-3.6 1.12Zm0-8.596a2.2 2.2 0 0 0-2.04 1.362c-.17.403-.21.847-.13 1.275.09.428.3.821.61 1.13.3.309.7.519 1.13.604.42.085.87.041 1.27-.126s.75-.45.99-.812a2.217 2.217 0 0 0-.27-2.787 2.225 2.225 0 0 0-1.56-.646Z" fill="#FFE9C9"></path><path d="M1367.01 210.378a2.2 2.2 0 0 0 2.2-2.207 2.2 2.2 0 0 0-2.2-2.207c-1.22 0-2.21.988-2.21 2.207a2.21 2.21 0 0 0 2.21 2.207Z" fill="#000"></path><path d="M1349.47 208.171a6.383 6.383 0 0 1-6.39 6.389h-.25a6.389 6.389 0 0 1-4.59-2.185 6.357 6.357 0 0 1-1.44-2.93 6.34 6.34 0 0 1 .19-3.262 6.255 6.255 0 0 1 1.78-2.741h8.62a6.39 6.39 0 0 1 2.08 4.729Zm-6.39-2.207c-.44 0-.86.129-1.23.372a2.226 2.226 0 0 0-.94 2.265c.09.428.3.821.61 1.13a2.201 2.201 0 0 0 3.39-.334c.25-.363.38-.79.38-1.226a2.23 2.23 0 0 0-.65-1.563c-.2-.205-.45-.368-.72-.478a2.134 2.134 0 0 0-.84-.166Z" fill="#FFE9C9"></path><path d="M1343.08 210.378a2.21 2.21 0 0 0 2.21-2.207c0-1.219-.99-2.207-2.21-2.207a2.2 2.2 0 0 0-2.2 2.207 2.2 2.2 0 0 0 2.2 2.207Z" fill="#000"></path><path d="M1403.88 197.267h156.88v-59.599h-156.88v59.599Z" fill="#00D425"></path><g opacity=".1"><path d="M1435.76 191.662h1.99v-48.397h-1.99v48.397ZM1430.4 191.662h1.99v-48.397h-1.99v48.397ZM1425.04 191.662h1.99v-48.397h-1.99v48.397ZM1419.68 191.662h1.99v-48.397h-1.99v48.397ZM1414.31 191.662h1.99v-48.397h-1.99v48.397ZM1408.95 191.662h2v-48.397h-2v48.397Z" fill="#1D1D1B" style="mix-blend-mode:multiply" opacity=".58"></path></g><path d="M1395.08 197.367h2.68c.28-.002.55.051.8.155.26.105.49.259.68.454.19.195.34.427.45.681.1.255.15.527.14.801h1.97v.223c0 .574.13 1.139.39 1.654h-2.36v.046c0 .545-.22 1.067-.6 1.452-.39.385-.91.601-1.46.601h-2.68a2.034 2.034 0 0 1-1.45-.601 2.191 2.191 0 0 1-.45-.667c-.1-.249-.15-.516-.15-.785v-1.923c-.01-.272.04-.543.14-.796a2.052 2.052 0 0 1 1.11-1.135c.25-.106.52-.16.79-.16Z" fill="#1D1D1B"></path><path d="M1401.79 199.459v-1.369h9.05v5.382h-5.27a3.767 3.767 0 0 1-3.39-2.122 3.657 3.657 0 0 1-.39-1.653v-.238Z" fill="#1D1D1B"></path><path d="M1449.42 208.171c0 1.062-.26 2.108-.77 3.043a6.44 6.44 0 0 1-2.13 2.309 6.385 6.385 0 0 1-6.06.496 6.352 6.352 0 0 1-3.73-4.81 6.274 6.274 0 0 1 .26-3.128 6.367 6.367 0 0 1 1.73-2.624h8.62a6.355 6.355 0 0 1 2.08 4.714Zm-6.39-2.207c-.44 0-.86.129-1.23.372-.36.242-.64.587-.81.99-.17.403-.21.847-.12 1.275a2.201 2.201 0 0 0 3 1.608c.41-.167.75-.45 1-.812.24-.363.37-.79.37-1.226 0-.586-.24-1.147-.65-1.561a2.19 2.19 0 0 0-1.56-.646ZM1425.49 208.171c0 1.062-.27 2.107-.77 3.04a6.422 6.422 0 0 1-2.13 2.306 6.383 6.383 0 0 1-6.06.495 6.352 6.352 0 0 1-3.73-4.804 6.27 6.27 0 0 1 .26-3.127 6.45 6.45 0 0 1 1.72-2.624h8.63a6.355 6.355 0 0 1 2.08 4.714Zm-6.39-2.207c-.44 0-.86.129-1.23.372-.36.242-.64.587-.81.99-.17.403-.21.847-.12 1.275a2.201 2.201 0 0 0 1.73 1.734c.43.085.87.041 1.28-.126.4-.167.74-.45.99-.812.24-.363.37-.79.37-1.226a2.23 2.23 0 0 0-.65-1.563c-.2-.205-.45-.368-.71-.478a2.22 2.22 0 0 0-.85-.166Z" fill="#FFE9C9"></path><path d="M1419.1 210.377c1.22 0 2.21-.988 2.21-2.207 0-1.218-.99-2.206-2.21-2.206s-2.21.988-2.21 2.206c0 1.219.99 2.207 2.21 2.207Z" fill="#000"></path><path d="M1401.79 198.09h160.47v-3.307h-160.47v3.307Z" fill="#BBB"></path><path d="M1422.96 198.09h28.55v5.382h-1.54a8.375 8.375 0 0 1 .47 8.617 8.315 8.315 0 0 1-3.08 3.252 8.344 8.344 0 0 1-4.31 1.198c-1.52 0-3.01-.414-4.32-1.198a8.46 8.46 0 0 1-3.08-3.252 8.415 8.415 0 0 1-.96-4.374 8.387 8.387 0 0 1 1.44-4.243h-.16l-2.98 4.714h-3.61l-2.99-4.714h-.41a8.375 8.375 0 0 1 .47 8.617 8.387 8.387 0 0 1-3.08 3.252 8.344 8.344 0 0 1-4.31 1.198c-1.52 0-3.01-.414-4.32-1.198a8.46 8.46 0 0 1-3.08-3.252 8.415 8.415 0 0 1-.96-4.374 8.387 8.387 0 0 1 1.44-4.243h-1.36v-5.382h12.18Zm13.68 10.08c0 1.063.27 2.109.77 3.044a6.44 6.44 0 0 0 2.13 2.309 6.398 6.398 0 0 0 6.07.496 6.393 6.393 0 0 0 2.47-1.933 6.494 6.494 0 0 0 1.26-2.877 6.398 6.398 0 0 0-.27-3.129 6.44 6.44 0 0 0-1.72-2.623h-8.63a6.355 6.355 0 0 0-1.54 2.137c-.35.812-.54 1.69-.54 2.576Zm-23.93 0c0 1.063.27 2.109.77 3.044a6.44 6.44 0 0 0 2.13 2.309 6.398 6.398 0 0 0 6.07.496 6.393 6.393 0 0 0 2.47-1.933 6.384 6.384 0 0 0 1.26-2.877 6.398 6.398 0 0 0-.27-3.129 6.44 6.44 0 0 0-1.72-2.623h-8.64a6.485 6.485 0 0 0-1.53 2.139 6.512 6.512 0 0 0-.54 2.574Z" fill="#1D1D1B"></path><path d="M1258.96 43.693s-6.22-1.773-9.01-4.917-5.98-5.09-5.98-5.09l-3.89-.057 4.67 11.63 14.21-1.566Z" fill="#fff"></path><path d="m1239.82 34.632 1.1-.234 3.6 8.716-1.21.301-3.49-8.783Z" fill="#DDD"></path><path d="m1277.27 51.556 5.43-.479c.45-.04.83-.26.92-.54.25-.767.51-2.224-1.04-2.51-1.59-.297-4.44 1.904-5.76 3.015-.28.242-.01.556.45.514Z" fill="#fff"></path><path d="M1282.58 48.03c-.33-.063-.73-.013-1.15.112h.02c2.02.372.95 2.765.85 2.97l.63-.056c.3-.027.56-.174.63-.363.26-.703.68-2.357-.98-2.663Z" fill="#fff"></path><path d="M1294.87 39.787c-21.58.584-49.58 4.75-49.58 4.75l-4.76.921v.02c-.05.299-.02.604.08.891.05.136.13.257.23.353.11.096.24.164.38.197 10.65 2.644 19.76 2.63 19.76 2.63 6.41.197 27.61-2.074 27.61-2.074 14.67-1.377 14.38-4.46 14.38-4.46-1.91-3.444-8.1-3.228-8.1-3.228Z" fill="#fff"></path><path d="m1285.78 46.469-13.97 8.603s-2 .42-2.52.101l5.33-6.998s-.08-.175-.56-.575c-.49-.401 11.72-1.131 11.72-1.131Z" fill="#fff"></path><path d="m1275.38 48.624-.76-.446-5.33 6.998c.18.106.51.13.89.115l5.2-6.667ZM1243.48 46.947l-1.77 1.907s4.27.86 6.59-1.282l-4.82-.625Z" fill="#fff"></path><path d="M1255.95 47.66a.541.541 0 0 1-.29-.157.555.555 0 0 1-.14-.299l-.06-.553a.524.524 0 0 1 .11-.38c.08-.109.2-.18.34-.2l.56-.074c.07-.01.14-.007.21.012.06.018.13.05.18.093a.44.44 0 0 1 .14.16c.03.063.05.131.06.202l.06.622a.52.52 0 0 1-.02.215.477.477 0 0 1-.11.187.49.49 0 0 1-.17.128.548.548 0 0 1-.21.047l-.56.008a.492.492 0 0 1-.1-.01Z" fill="#00D425"></path><path d="M1256.97 47.1c0 .051 0 .103-.02.152a.335.335 0 0 1-.07.132.429.429 0 0 1-.13.09.325.325 0 0 1-.15.034l-.55.008a.38.38 0 0 1-.25-.094.36.36 0 0 1-.12-.236l-.06-.553a.329.329 0 0 1 .07-.27.383.383 0 0 1 .24-.14l.56-.074a.347.347 0 0 1 .32.115c.05.059.09.133.1.212l.06.624Z" fill="#fff"></path><path d="M1295.31 43.849a.509.509 0 0 1-.29-.158.492.492 0 0 1-.14-.299l-.06-.553a.481.481 0 0 1 .11-.38c.08-.108.2-.18.34-.2l.55-.074a.53.53 0 0 1 .4.107c.05.043.1.098.13.16.04.062.06.13.07.2l.06.622a.52.52 0 0 1-.02.215.64.64 0 0 1-.11.187.526.526 0 0 1-.18.129.474.474 0 0 1-.21.047l-.55.007a.46.46 0 0 1-.1-.01Zm.66-1.51a.383.383 0 0 0-.12 0l-.56.074a.358.358 0 0 0-.24.14.376.376 0 0 0-.08.27l.07.553a.36.36 0 0 0 .12.236c.07.06.16.094.25.093l.55-.007c.05-.001.1-.013.15-.034a.299.299 0 0 0 .12-.09.357.357 0 0 0 .08-.133c.02-.049.02-.1.02-.151l-.07-.623a.35.35 0 0 0-.04-.14.325.325 0 0 0-.1-.114.349.349 0 0 0-.15-.075Z" fill="#00D425"></path><path d="m1259.46 45.664-.47.047a.17.17 0 0 0-.16.185l.09.838c.01.093.09.16.18.151l.48-.047a.17.17 0 0 0 .15-.185l-.09-.838a.166.166 0 0 0-.18-.151ZM1260.97 45.511l-.47.047a.17.17 0 0 0-.15.186l.08.837a.17.17 0 0 0 .19.152l.47-.047a.17.17 0 0 0 .15-.186l-.08-.837a.17.17 0 0 0-.19-.152ZM1262.62 45.34l-.47.048a.17.17 0 0 0-.16.185l.09.838c.01.093.09.16.18.151l.48-.047a.17.17 0 0 0 .15-.185l-.09-.838a.166.166 0 0 0-.18-.151ZM1264.38 45.17l-.48.048a.17.17 0 0 0-.15.185l.08.837c.01.094.1.162.19.152l.47-.047c.1-.01.16-.092.15-.185l-.08-.838a.167.167 0 0 0-.18-.152ZM1265.9 45.019l-.48.047a.17.17 0 0 0-.15.185l.08.838c.01.093.1.16.19.151l.47-.047c.1-.01.16-.092.15-.185l-.08-.838a.167.167 0 0 0-.18-.151ZM1267.53 44.856l-.47.047a.17.17 0 0 0-.15.186l.08.837a.17.17 0 0 0 .19.152l.47-.048a.17.17 0 0 0 .15-.185l-.08-.837a.17.17 0 0 0-.19-.152ZM1269.31 44.67l-.47.047c-.1.01-.16.093-.16.186l.09.837c.01.093.09.161.18.152l.48-.048a.17.17 0 0 0 .15-.185l-.09-.837c0-.094-.09-.161-.18-.152ZM1270.82 44.526l-.47.047a.17.17 0 0 0-.15.186l.08.837c.01.093.1.161.19.152l.47-.047c.1-.01.16-.093.15-.186l-.08-.837a.17.17 0 0 0-.19-.152ZM1272.75 44.452l-.48.047a.17.17 0 0 0-.15.187l.08.841c.01.094.1.162.19.153l.47-.048c.1-.009.17-.093.16-.186l-.09-.842a.167.167 0 0 0-.18-.152ZM1274.23 44.186l-.48.047a.17.17 0 0 0-.15.185l.09.838c.01.093.09.16.18.151l.47-.047a.17.17 0 0 0 .16-.185l-.09-.838a.167.167 0 0 0-.18-.151ZM1275.75 44.034l-.48.047a.17.17 0 0 0-.15.185l.09.838c.01.093.09.16.18.152l.47-.048a.17.17 0 0 0 .16-.185l-.09-.837a.167.167 0 0 0-.18-.152ZM1277.39 43.86l-.48.048a.17.17 0 0 0-.15.186l.09.837c.01.093.09.161.18.152l.48-.048a.17.17 0 0 0 .15-.185l-.09-.837a.167.167 0 0 0-.18-.152ZM1279.13 43.695l-.47.047a.17.17 0 0 0-.15.185l.08.838c.01.093.1.16.19.151l.47-.047a.17.17 0 0 0 .15-.185l-.08-.838a.17.17 0 0 0-.19-.151ZM1280.65 43.543l-.47.047a.17.17 0 0 0-.15.186l.08.837a.17.17 0 0 0 .19.152l.47-.047a.17.17 0 0 0 .15-.186l-.08-.837a.17.17 0 0 0-.19-.152ZM1282.29 43.37l-.47.047a.17.17 0 0 0-.15.186l.08.837c.01.093.1.161.19.152l.47-.048a.17.17 0 0 0 .15-.185l-.08-.837a.17.17 0 0 0-.19-.152ZM1284.05 43.204l-.47.047a.17.17 0 0 0-.15.186l.08.837a.17.17 0 0 0 .19.152l.47-.047a.17.17 0 0 0 .15-.186l-.08-.837a.176.176 0 0 0-.19-.152ZM1285.57 43.053l-.47.047a.17.17 0 0 0-.15.186l.08.837a.17.17 0 0 0 .19.152l.47-.048a.17.17 0 0 0 .15-.185l-.08-.837a.176.176 0 0 0-.19-.152ZM1287.21 42.89l-.47.047a.17.17 0 0 0-.15.185l.08.837a.17.17 0 0 0 .19.152l.47-.047a.17.17 0 0 0 .15-.186l-.08-.837a.176.176 0 0 0-.19-.152ZM1288.85 42.697l-.47.047a.17.17 0 0 0-.16.186l.09.837c.01.093.09.161.18.152l.48-.048a.17.17 0 0 0 .15-.185l-.09-.837a.167.167 0 0 0-.18-.152ZM1290.61 42.508l-.47.047c-.1.01-.16.093-.15.186l.08.837a.17.17 0 0 0 .19.152l.47-.047a.17.17 0 0 0 .15-.186l-.08-.837a.176.176 0 0 0-.19-.152ZM1292.5 42.438l-.47.047a.17.17 0 0 0-.15.186l.08.842a.17.17 0 0 0 .19.152l.47-.047c.1-.01.16-.093.15-.187l-.08-.841a.17.17 0 0 0-.19-.153ZM1293.77 42.203l-.47.047c-.1.01-.16.093-.15.186l.08.837c.01.093.09.161.18.152l.48-.047a.17.17 0 0 0 .15-.186l-.08-.837a.176.176 0 0 0-.19-.152ZM1300.57 42.264s-.44-.275-.34-.47c.1-.196.22-.489.53-.215.32.273.12.372-.19.685ZM1300.62 41.212s.37.402.56.193l.08-.13-.48-.275s-.16.175-.17.232" fill="#1D1D1B"></path><path d="M465.83 51.693s6.22-1.773 9.006-4.917c2.787-3.144 5.984-5.09 5.984-5.09l3.887-.057-4.67 11.63-14.207-1.566Z" fill="#fff"></path><path d="m484.969 42.632-1.103-.234-3.606 8.716 1.217.301 3.492-8.783Z" fill="#DDD"></path><path d="m447.516 59.556-5.431-.479c-.446-.04-.826-.26-.918-.54-.252-.767-.51-2.224 1.033-2.51 1.59-.297 4.443 1.904 5.762 3.015.285.242.011.556-.446.514Z" fill="#fff"></path><path d="M442.205 56.03c.335-.063.726-.013 1.147.112h-.014c-2.025.372-.949 2.765-.853 2.97l-.628-.056c-.304-.027-.561-.174-.63-.363-.26-.703-.677-2.357.978-2.663Z" fill="#fff"></path><path d="M429.914 47.787c21.582.584 49.584 4.75 49.584 4.75l4.758.921v.02c.045.299.019.604-.078.891a.858.858 0 0 1-.612.55c-10.653 2.644-19.76 2.63-19.76 2.63-6.415.197-27.609-2.074-27.609-2.074-14.675-1.377-14.38-4.46-14.38-4.46 1.906-3.444 8.097-3.228 8.097-3.228Z" fill="#fff"></path><path d="m439.008 54.469 13.964 8.603s2.002.42 2.52.101l-5.325-6.998s.074-.175.56-.575c.487-.401-11.719-1.131-11.719-1.131Z" fill="#fff"></path><path d="m449.402 56.624.766-.446 5.324 6.998c-.173.106-.511.13-.884.115l-5.206-6.667ZM481.309 54.947l1.769 1.907s-4.274.86-6.592-1.282l4.823-.625Z" fill="#fff"></path><path d="M468.838 55.66a.518.518 0 0 0 .424-.456l.063-.553a.527.527 0 0 0-.45-.58l-.556-.074a.515.515 0 0 0-.397.105.517.517 0 0 0-.197.362l-.064.622a.521.521 0 0 0 .131.402.535.535 0 0 0 .385.175l.555.008a.544.544 0 0 0 .106-.01Z" fill="#00D425"></path><path d="M467.816 55.1a.364.364 0 0 0 .093.284.374.374 0 0 0 .271.124l.555.008a.374.374 0 0 0 .371-.33l.064-.553a.375.375 0 0 0-.319-.41l-.555-.074a.36.36 0 0 0-.12 0 .369.369 0 0 0-.297.327l-.063.624Z" fill="#fff"></path><path d="M429.475 51.849a.523.523 0 0 0 .423-.457l.064-.553a.529.529 0 0 0-.446-.58l-.556-.074a.522.522 0 0 0-.594.467l-.063.622a.54.54 0 0 0 .13.402.532.532 0 0 0 .385.176l.555.007a.551.551 0 0 0 .102-.01Zm-.659-1.51a.383.383 0 0 1 .12 0l.554.074a.372.372 0 0 1 .318.41l-.063.553a.37.37 0 0 1-.371.33l-.555-.008a.376.376 0 0 1-.272-.124.375.375 0 0 1-.092-.284l.063-.623a.372.372 0 0 1 .139-.254.371.371 0 0 1 .159-.075Z" fill="#00D425"></path><path d="m465.331 53.664.473.047a.17.17 0 0 1 .152.185l-.084.838a.169.169 0 0 1-.185.151l-.473-.047a.17.17 0 0 1-.152-.185l.084-.838a.169.169 0 0 1 .185-.151ZM463.812 53.511l.472.047c.094.01.162.093.152.186l-.083.837a.17.17 0 0 1-.186.152l-.473-.047a.168.168 0 0 1-.151-.186l.083-.837a.17.17 0 0 1 .186-.152ZM462.167 53.34l.473.048a.17.17 0 0 1 .152.185l-.084.838a.17.17 0 0 1-.186.151l-.472-.047a.17.17 0 0 1-.152-.185l.084-.838a.169.169 0 0 1 .185-.151ZM460.41 53.17l.472.048a.17.17 0 0 1 .152.185l-.084.837a.169.169 0 0 1-.185.152l-.473-.047a.17.17 0 0 1-.152-.185l.084-.838a.17.17 0 0 1 .186-.152ZM458.89 53.019l.473.047c.093.01.161.092.151.185l-.083.838a.17.17 0 0 1-.186.151l-.472-.047a.169.169 0 0 1-.152-.185l.083-.838a.17.17 0 0 1 .186-.151ZM457.253 52.856l.473.047a.17.17 0 0 1 .152.186l-.084.837a.17.17 0 0 1-.186.152l-.472-.048a.17.17 0 0 1-.152-.185l.084-.837a.169.169 0 0 1 .185-.152ZM455.472 52.67l.473.047c.093.01.161.093.151.186l-.083.837a.17.17 0 0 1-.186.152l-.473-.048a.169.169 0 0 1-.151-.185l.083-.837a.17.17 0 0 1 .186-.152ZM453.956 52.526l.473.047a.17.17 0 0 1 .152.186l-.084.837a.169.169 0 0 1-.185.152l-.473-.047a.17.17 0 0 1-.152-.186l.084-.837a.169.169 0 0 1 .185-.152ZM452.039 52.452l.475.047a.17.17 0 0 1 .153.187l-.084.841a.17.17 0 0 1-.187.153l-.475-.048a.17.17 0 0 1-.152-.186l.084-.842a.17.17 0 0 1 .186-.152ZM450.558 52.186l.473.047c.093.01.161.092.151.185l-.083.838a.17.17 0 0 1-.186.151l-.472-.047a.169.169 0 0 1-.152-.185l.083-.838a.17.17 0 0 1 .186-.151ZM449.038 52.034l.473.047a.17.17 0 0 1 .152.185l-.084.838a.169.169 0 0 1-.185.152l-.473-.048a.17.17 0 0 1-.152-.185l.084-.837a.169.169 0 0 1 .185-.152ZM447.394 51.86l.473.048c.093.01.161.093.151.186l-.084.837a.169.169 0 0 1-.185.152l-.473-.048a.169.169 0 0 1-.151-.185l.083-.837a.17.17 0 0 1 .186-.152ZM445.652 51.695l.472.047a.17.17 0 0 1 .152.185l-.084.838a.169.169 0 0 1-.185.151l-.473-.047a.17.17 0 0 1-.152-.185l.084-.838a.17.17 0 0 1 .186-.151ZM444.136 51.543l.473.047c.093.01.161.093.151.186l-.083.837a.17.17 0 0 1-.186.152l-.472-.047a.17.17 0 0 1-.152-.186l.084-.837a.169.169 0 0 1 .185-.152ZM442.492 51.37l.472.047a.17.17 0 0 1 .152.186l-.084.837a.169.169 0 0 1-.185.152l-.473-.048a.17.17 0 0 1-.152-.185l.084-.837a.17.17 0 0 1 .186-.152ZM440.73 51.204l.472.047c.094.01.162.093.152.186l-.083.837a.17.17 0 0 1-.186.152l-.473-.047a.169.169 0 0 1-.151-.186l.083-.837a.17.17 0 0 1 .186-.152ZM439.214 51.053l.473.047a.17.17 0 0 1 .152.186l-.084.837a.17.17 0 0 1-.186.152l-.472-.048a.17.17 0 0 1-.152-.185l.084-.837a.169.169 0 0 1 .185-.152ZM437.574 50.89l.472.047a.17.17 0 0 1 .152.185l-.084.837a.169.169 0 0 1-.185.152l-.473-.047a.17.17 0 0 1-.152-.186l.084-.837a.17.17 0 0 1 .186-.152ZM435.941 50.697l.472.047a.17.17 0 0 1 .152.186l-.084.837a.169.169 0 0 1-.185.152l-.473-.048a.168.168 0 0 1-.151-.185l.083-.837a.17.17 0 0 1 .186-.152ZM434.175 50.508l.473.047a.17.17 0 0 1 .152.186l-.084.837a.17.17 0 0 1-.186.152l-.473-.047a.169.169 0 0 1-.151-.186l.084-.837a.169.169 0 0 1 .185-.152ZM432.281 50.438l.475.047a.17.17 0 0 1 .153.186l-.084.842a.17.17 0 0 1-.187.152l-.475-.047a.17.17 0 0 1-.152-.187l.084-.841a.17.17 0 0 1 .186-.153ZM431.019 50.203l.473.047c.093.01.161.093.151.186l-.083.837a.17.17 0 0 1-.186.152l-.473-.047a.169.169 0 0 1-.151-.186l.083-.837a.17.17 0 0 1 .186-.152ZM424.212 50.264s.439-.275.34-.47c-.1-.196-.218-.489-.532-.215-.313.273-.119.372.192.685ZM424.17 49.212s-.378.402-.56.193l-.087-.13.478-.275s.164.175.175.232" fill="#1D1D1B"></path></svg> 